<svg xmlns="http://www.w3.org/2000/svg" width="48" height="48" viewBox="0 0 48 48">
  <g id="Grupo_789" data-name="Grupo 789" transform="translate(-1577 -88)">
    <g id="Elipse_13" data-name="Elipse 13" transform="translate(1577 88)" fill="#fff" stroke="#0080d0" stroke-width="2">
      <circle cx="24" cy="24" r="24" stroke="none"/>
      <circle cx="24" cy="24" r="23" fill="none"/>
    </g>
    <g id="Grupo_793" data-name="Grupo 793" transform="translate(-42.962 2.068)">
      <path id="Icon_feather-github" data-name="Icon feather-github" d="M13.987,30.1m11.12,4.766V28.715a5.354,5.354,0,0,0-1.493-4.146c4.988-.556,10.231-2.446,10.231-11.12a8.641,8.641,0,0,0-2.382-5.956,8.054,8.054,0,0,0-.144-5.99S29.445.946,25.108,3.854a21.256,21.256,0,0,0-11.12,0C9.65.946,7.776,1.5,7.776,1.5a8.054,8.054,0,0,0-.143,5.989,8.642,8.642,0,0,0-2.383,6c0,8.61,5.242,10.5,10.231,11.12a5.354,5.354,0,0,0-1.493,4.1v8.148h11.12" transform="translate(1624.606 94.77)" fill="#0080d0" stroke="#0080d0" stroke-linecap="round" stroke-linejoin="round" stroke-width="3"/>
      <path id="Icon_feather-github-2" data-name="Icon feather-github" d="M14.12,28.766a12.518,12.518,0,0,1-2.622.5,6.384,6.384,0,0,1-3.249-.584C5.848,27.633,5.154,24.539,3,24m22.241,9.532h0" transform="translate(1624.473 96.102)" fill="none" stroke="#0080d0" stroke-linecap="round" stroke-linejoin="round" stroke-width="3"/>
    </g>
  </g>
</svg>
