<svg xmlns="http://www.w3.org/2000/svg" width="48" height="48" viewBox="0 0 48 48">
  <g id="Grupo_795" data-name="Grupo 795" transform="translate(-1577 -88)">
    <g id="Trazado_71" data-name="Trazado 71" transform="translate(1577 88)" fill="#f1502f">
      <path d="M 24 47 C 20.89458084106445 47 17.8825798034668 46.39202117919922 15.04767036437988 45.19295883178711 C 12.30897045135498 44.03458023071289 9.849149703979492 42.37606048583984 7.736549854278564 40.26345062255859 C 5.623939990997314 38.15084838867188 3.965420007705688 35.6910285949707 2.807039976119995 32.95233154296875 C 1.607980012893677 30.1174201965332 1 27.10541915893555 1 24 C 1 20.89458084106445 1.607980012893677 17.8825798034668 2.807039976119995 15.04767036437988 C 3.965420007705688 12.30897045135498 5.623939990997314 9.849149703979492 7.736549854278564 7.736549854278564 C 9.849149703979492 5.623939990997314 12.30897045135498 3.965420007705688 15.04767036437988 2.807039976119995 C 17.8825798034668 1.607980012893677 20.89458084106445 1 24 1 C 27.10541915893555 1 30.1174201965332 1.607980012893677 32.95233154296875 2.807039976119995 C 35.6910285949707 3.965420007705688 38.15084838867188 5.623939990997314 40.26345062255859 7.736549854278564 C 42.37606048583984 9.849149703979492 44.03458023071289 12.30897045135498 45.19295883178711 15.04767036437988 C 46.39202117919922 17.8825798034668 47 20.89458084106445 47 24 C 47 27.10541915893555 46.39202117919922 30.1174201965332 45.19295883178711 32.95233154296875 C 44.03458023071289 35.6910285949707 42.37606048583984 38.15084838867188 40.26345062255859 40.26345062255859 C 38.15084838867188 42.37606048583984 35.6910285949707 44.03458023071289 32.95233154296875 45.19295883178711 C 30.1174201965332 46.39202117919922 27.10541915893555 47 24 47 Z" stroke="none"/>
      <path d="M 24 2 C 21.02914047241211 2 18.1481990814209 2.581401824951172 15.43722152709961 3.728050231933594 C 12.81771850585938 4.836009979248047 10.46474075317383 6.422561645507812 8.443649291992188 8.443649291992188 C 6.422561645507812 10.46474075317383 4.836009979248047 12.81771850585938 3.728050231933594 15.43722152709961 C 2.581401824951172 18.1481990814209 2 21.02914047241211 2 24 C 2 26.97085952758789 2.581401824951172 29.8518009185791 3.728050231933594 32.56278228759766 C 4.836009979248047 35.18228149414062 6.422561645507812 37.53525924682617 8.443649291992188 39.55635070800781 C 10.46474075317383 41.57743835449219 12.81771850585938 43.16399002075195 15.43722152709961 44.27194976806641 C 18.1481990814209 45.41860198974609 21.02914047241211 46 24 46 C 26.97085952758789 46 29.8518009185791 45.41860198974609 32.56278228759766 44.27194976806641 C 35.18228149414062 43.16399002075195 37.53525924682617 41.57743835449219 39.55635070800781 39.55635070800781 C 41.57743835449219 37.53525924682617 43.16399002075195 35.18228149414062 44.27194976806641 32.56278228759766 C 45.41860198974609 29.8518009185791 46 26.97085952758789 46 24 C 46 21.02914047241211 45.41860198974609 18.1481990814209 44.27194976806641 15.43722152709961 C 43.16399002075195 12.81771850585938 41.57743835449219 10.46474075317383 39.55635070800781 8.443649291992188 C 37.53525924682617 6.422561645507812 35.18228149414062 4.836009979248047 32.56278228759766 3.728050231933594 C 29.8518009185791 2.581401824951172 26.97085952758789 2 24 2 M 24 0 C 37.25482940673828 0 48 10.74517059326172 48 24 C 48 37.25482940673828 37.25482940673828 48 24 48 C 10.74517059326172 48 0 37.25482940673828 0 24 C 0 10.74517059326172 10.74517059326172 0 24 0 Z" stroke="none" fill="#f1502f"/>
    </g>
    <g id="Grupo_793" data-name="Grupo 793" transform="translate(-42.962 2.068)">
      <path id="Icon_feather-github" data-name="Icon feather-github" d="M13.987,30.1m11.12,4.766V28.715a5.354,5.354,0,0,0-1.493-4.146c4.988-.556,10.231-2.446,10.231-11.12a8.641,8.641,0,0,0-2.382-5.956,8.054,8.054,0,0,0-.144-5.99S29.445.946,25.108,3.854a21.256,21.256,0,0,0-11.12,0C9.65.946,7.776,1.5,7.776,1.5a8.054,8.054,0,0,0-.143,5.989,8.642,8.642,0,0,0-2.383,6c0,8.61,5.242,10.5,10.231,11.12a5.354,5.354,0,0,0-1.493,4.1v8.148h11.12" transform="translate(1624.606 94.77)" fill="#fff" stroke="#fff" stroke-linecap="round" stroke-linejoin="round" stroke-width="3"/>
      <path id="Icon_feather-github-2" data-name="Icon feather-github" d="M14.12,28.766a12.518,12.518,0,0,1-2.622.5,6.384,6.384,0,0,1-3.249-.584C5.848,27.633,5.154,24.539,3,24m22.241,9.532h0" transform="translate(1624.473 96.102)" fill="none" stroke="#fff" stroke-linecap="round" stroke-linejoin="round" stroke-width="3"/>
    </g>
  </g>
</svg>
