<svg xmlns="http://www.w3.org/2000/svg" width="42" height="42" viewBox="0 0 42 42">
  <path id="Trazado_3424" data-name="Trazado 3424" d="M27.305,34.718l-.021.021-5.04-5.04,2.226-2.226L27.3,30.308,32.534,25.1l2.226,2.226L27.326,34.76ZM23,2A21,21,0,1,0,44,23,21.062,21.062,0,0,0,23,2Zm-9.786,8.988,2.961,2.961,2.961-2.961,2.226,2.226L18.4,16.175l2.961,2.961-2.226,2.226L16.175,18.4l-2.961,2.961-2.226-2.226,2.961-2.961-2.961-2.961ZM23,39.8a17.561,17.561,0,0,1-11.97-4.83L34.97,11.03A17.561,17.561,0,0,1,39.8,23,16.849,16.849,0,0,1,23,39.8Z" transform="translate(-2 -2)" fill="#0080d0"/>
</svg>
