<svg xmlns="http://www.w3.org/2000/svg" width="61" height="42" viewBox="0 0 61 42">
  <path id="Trazado_3410" data-name="Trazado 3410" d="M56.84,32.775A10.445,10.445,0,0,1,63,42.33V48H21V42.365a10.372,10.372,0,0,1,6.16-9.555C31.255,30.99,52.745,30.99,56.84,32.775ZM68,30.5a7,7,0,1,0-7-7A7.021,7.021,0,0,0,68,30.5ZM82,42.505a7.038,7.038,0,0,0-4.27-6.475,23.794,23.794,0,0,0-13.685-1.68,15.745,15.745,0,0,1,2.2,8.015V48H82ZM42,6A10.5,10.5,0,1,1,31.5,16.5,10.486,10.486,0,0,1,42,6Z" transform="translate(-21 -6)" fill="#0080d0"/>
</svg>
