<svg xmlns="http://www.w3.org/2000/svg" width="42" height="42" viewBox="0 0 42 42">
  <path id="Trazado_3413" data-name="Trazado 3413" d="M13.6,35.6a4.2,4.2,0,1,0,4.2,4.2A4.194,4.194,0,0,0,13.6,35.6ZM1,2V6.2H5.2l7.56,15.939L9.925,27.284A4.06,4.06,0,0,0,9.4,29.3a4.212,4.212,0,0,0,4.2,4.2H38.8V29.3H14.482a.52.52,0,0,1-.525-.525l.063-.252L15.91,25.1H31.555a4.18,4.18,0,0,0,3.675-2.163L42.748,9.308A2.052,2.052,0,0,0,43,8.3a2.106,2.106,0,0,0-2.1-2.1H9.841L7.867,2H1ZM34.6,35.6a4.2,4.2,0,1,0,4.2,4.2A4.194,4.194,0,0,0,34.6,35.6Z" transform="translate(-1 -2)" fill="#0080d0"/>
</svg>
