<svg xmlns="http://www.w3.org/2000/svg" width="42" height="42" viewBox="0 0 42 42">
  <path id="Trazado_3409" data-name="Trazado 3409" d="M40.333,7.667H35.667V3H12.333V7.667H7.667A4.68,4.68,0,0,0,3,12.333v2.333A11.647,11.647,0,0,0,13.243,26.193,11.688,11.688,0,0,0,21.667,33.1v7.233H12.333V45H35.667V40.333H26.333V33.1a11.688,11.688,0,0,0,8.423-6.907A11.647,11.647,0,0,0,45,14.667V12.333A4.68,4.68,0,0,0,40.333,7.667Zm-32.667,7V12.333h4.667v8.913A7.024,7.024,0,0,1,7.667,14.667Zm32.667,0a7.024,7.024,0,0,1-4.667,6.58V12.333h4.667Z" transform="translate(-3 -3)" fill="#0080d0"/>
</svg>
