<svg xmlns="http://www.w3.org/2000/svg" xmlns:xlink="http://www.w3.org/1999/xlink" width="58" height="58" viewBox="0 0 58 58">
  <defs>
    <linearGradient id="linear-gradient" x1="0.5" x2="0.5" y2="1" gradientUnits="objectBoundingBox">
      <stop offset="0" stop-color="#ea923e"/>
      <stop offset="1" stop-color="#ef6c26"/>
    </linearGradient>
    <filter id="Rectángulo_345">
      <feOffset dy="3" input="SourceAlpha"/>
      <feGaussianBlur stdDeviation="2" result="blur"/>
      <feFlood flood-color="#fffbc9" flood-opacity="0.6" result="color"/>
      <feComposite operator="out" in="SourceGraphic" in2="blur"/>
      <feComposite operator="in" in="color"/>
      <feComposite operator="in" in2="SourceGraphic"/>
    </filter>
  </defs>
  <g id="Grupo_1145" data-name="Grupo 1145" transform="translate(-25 0.134)">
    <g data-type="innerShadowGroup">
      <rect id="Rectángulo_345-2" data-name="Rectángulo 345" width="58" height="58" rx="8" transform="translate(25 -0.134)" fill="url(#linear-gradient)"/>
      <g transform="matrix(1, 0, 0, 1, 25, -0.13)" filter="url(#Rectángulo_345)">
        <rect id="Rectángulo_345-3" data-name="Rectángulo 345" width="58" height="58" rx="8" fill="#fff"/>
      </g>
      <g id="Rectángulo_345-4" data-name="Rectángulo 345" transform="translate(25 -0.134)" fill="none" stroke="#933f0b" stroke-width="3">
        <rect width="58" height="58" rx="8" stroke="none"/>
        <rect x="1.5" y="1.5" width="55" height="55" rx="6.5" fill="none"/>
      </g>
    </g>
    <g id="atomic" transform="translate(30.201 7.866)">
      <path id="Trazado_113" data-name="Trazado 113" d="M20.011-257.121a4.571,4.571,0,0,0-2.5,1.254,9.446,9.446,0,0,0-2.738,5.193,23.814,23.814,0,0,0-.577,3.891c-.037.257-.056.531-.075.579,0,.048-.242.1-.522.113a28.735,28.735,0,0,0-4.805.772c-4.321,1.045-6.8,2.926-6.8,5.161a3.769,3.769,0,0,0,1.043,2.669,14.281,14.281,0,0,0,5.346,3.666,11.616,11.616,0,0,0,1.434.579c-.056-.032-.782-.514-1.639-1.061-6.836-4.357-6.3-7.975,1.4-9.341,2.5-.45,4.656-.595,4.656-.305.019.884.3,3.36.5,4.566L15-237.941l-.987,1.125c-6.78,7.749-8.139,14.759-3.241,16.624,8.437,3.216,28.721-12.412,32.52-25.049a10.209,10.209,0,0,0,.261-5,4.764,4.764,0,0,0-4.526-2.974,17.856,17.856,0,0,0-8.214,2.572,6.677,6.677,0,0,1-1.1.563,2.609,2.609,0,0,1-.633-.852,15.7,15.7,0,0,0-5.606-5.627A6.221,6.221,0,0,0,20.011-257.121Zm3.2,1.913a16.68,16.68,0,0,1,4.917,4.019,9.948,9.948,0,0,1,1.062,1.351,2.485,2.485,0,0,1-.615.627c-.335.273-.484.4-.317.289a1.374,1.374,0,0,1,.5-.193.791.791,0,0,0,.428-.241c.2-.225.317-.161.764.434.633.8.689.756.186-.129l-.373-.627,1.788-.74a15.652,15.652,0,0,1,6.761-1.64c4.023.016,4.768,3.071,2.1,8.489-.354.707-.652,1.3-.689,1.318a12.9,12.9,0,0,1-1.62-.514c-1.211-.434-5.271-1.624-6.593-1.929a4.146,4.146,0,0,1-.82-1.3,14.927,14.927,0,0,0-.8-1.463c-.112-.129-1.378-.177-4.265-.177l-4.116.016-.391.691-.391.707-2.067-.016-2.067-.032.037-.981c.168-3.344.913-6,2.03-7.267C19.825-255.835,21.259-256.044,23.215-255.208Zm-2.961,11.142c.969.064,1.9.145,2.049.177s.745.1,1.3.161a68.8,68.8,0,0,1,8.1,1.383,57.711,57.711,0,0,1,6.8,2.01,34.621,34.621,0,0,1-2.067,2.846l-.875,1.077-1.118-2.2-1.118-2.219-1.565-.37c-1.956-.466-6.426-1.254-7.8-1.4-.577-.048-1.211-.113-1.4-.145-.2-.032-1.043-.113-1.9-.177l-1.527-.113-.3.611c-.317.643-.279,1.125.224,3.682.615,3.055,2.254,8.537,2.682,9a14.493,14.493,0,0,0,3.3.145c1.714,0,3.2.032,3.3.064.224.113-4.023,3.28-5.495,4.1l-.484.273-.857-1.656a52.091,52.091,0,0,1-4.321-13.3c-.056-.4-.149-.9-.186-1.125a14.184,14.184,0,0,1-.224-2.846C16.882-244.227,17.627-244.227,20.253-244.066Zm6.2,5.563c.373.836.875,1.994,1.136,2.572l.447,1.045H25.673c-1.565,0-2.347-.064-2.347-.177a34.376,34.376,0,0,1,2.328-5.081A13.888,13.888,0,0,1,26.455-238.5Zm-12.386,5.531c-.8,1.608-1.546,3.055-1.639,3.232s-.6,1.142-1.1,2.122l-.913,1.817,1.136.016c5.625.032,7.45,0,7.581-.177.093-.129.391.209.782.852l.652,1.045-1.788.8c-3.93,1.769-6.891,2.042-8.2.756-1.956-1.929-.559-7.058,3.576-13.152l.969-1.415.2.595C15.522-235.915,15.448-235.706,14.069-232.973Z" transform="translate(-2 257.183)" fill="#1a1f3d"/>
      <path id="Trazado_114" data-name="Trazado 114" d="M171.691-154.113c-.447.894-.466.987-.168,1.173,4.209,2.533,6.221,4.805,5.979,6.761a3.149,3.149,0,0,1-1.248,2.235c-1.043,1.024-4.228,2.4-6.78,2.906l-.559.112-1.024-2.347a13.292,13.292,0,0,0-1.211-2.421,6.735,6.735,0,0,0-1.527,1.658c-.745.95-1.993,2.365-2.757,3.148a8.475,8.475,0,0,0-1.4,1.658c0,.54.466,1.471.745,1.471.335.019,7.078.019,7.953,0h.6l-.559-1.3a4.577,4.577,0,0,1-.447-1.49c.056-.112.391-.186.726-.186a19.3,19.3,0,0,0,3-.447,13.914,13.914,0,0,0,3.092-1.155.918.918,0,0,1,.466-.261,6.4,6.4,0,0,0,2.123-2.254,5.014,5.014,0,0,0,.224-3.446c-.54-1.9-2.943-4.414-6.128-6.426l-.6-.373Z" transform="translate(-131.385 170.338)" fill="#1a1f3d"/>
      <path id="Trazado_115" data-name="Trazado 115" d="M113.7-37.8l-.8.5.577.745c5.066,6.463,10.43,6.37,12.088-.2.13-.522.279-1.043.317-1.173.037-.112,0-.224-.074-.224-.093,0-.3.447-.466.987a8.85,8.85,0,0,1-1.9,3.185c-2.067,2.067-4.954.987-7.9-2.961-.466-.615-.875-1.173-.931-1.229C114.539-38.252,114.148-38.084,113.7-37.8Z" transform="translate(-92.244 73.053)" fill="#1a1f3d"/>
    </g>
  </g>
</svg>
