<svg id="Grupo_1143" data-name="Grupo 1143" xmlns="http://www.w3.org/2000/svg" xmlns:xlink="http://www.w3.org/1999/xlink" width="58" height="58" viewBox="0 0 58 58">
  <defs>
    <linearGradient id="linear-gradient" x1="0.5" x2="0.5" y2="1" gradientUnits="objectBoundingBox">
      <stop offset="0" stop-color="#494f58"/>
      <stop offset="1" stop-color="#2e3238"/>
    </linearGradient>
    <filter id="Rectángulo_351">
      <feOffset dy="3" input="SourceAlpha"/>
      <feGaussianBlur stdDeviation="2" result="blur"/>
      <feFlood flood-color="#fff" flood-opacity="0.6" result="color"/>
      <feComposite operator="out" in="SourceGraphic" in2="blur"/>
      <feComposite operator="in" in="color"/>
      <feComposite operator="in" in2="SourceGraphic"/>
    </filter>
    <clipPath id="clip-path">
      <path id="Trazado_118" data-name="Trazado 118" d="M30.962,47.77a5.513,5.513,0,0,1-2.756-.737l-12.99-7.5A5.526,5.526,0,0,1,12.46,34.76v-15a5.526,5.526,0,0,1,2.756-4.773l12.99-7.5a5.522,5.522,0,0,1,5.512,0l12.99,7.5a5.526,5.526,0,0,1,2.756,4.773v15a5.526,5.526,0,0,1-2.756,4.773l-12.99,7.5A5.513,5.513,0,0,1,30.962,47.77ZM17.838,18.728a2.45,2.45,0,0,0-2.448,2.448V34.419a3.179,3.179,0,0,0,1.586,2.747l12.4,7.159a3.174,3.174,0,0,0,3.172,0l12.4-7.159a3.182,3.182,0,0,0,1.586-2.747V21.176a2.448,2.448,0,0,0-4.9,0v9.308a1.929,1.929,0,0,1-3.858,0V17.455a2.448,2.448,0,1,0-4.9,0v19.7a1.929,1.929,0,0,1-3.858,0V23.4a2.448,2.448,0,0,0-4.9,0v4.9a1.929,1.929,0,0,1-3.858,0V21.176A2.433,2.433,0,0,0,17.838,18.728Z" transform="translate(-12.46 -6.75)"/>
    </clipPath>
    <linearGradient id="linear-gradient-2" x1="0.533" y1="1.134" x2="0.494" y2="0.714" gradientUnits="objectBoundingBox">
      <stop offset="0" stop-color="#fff"/>
      <stop offset="1" stop-color="#fff" stop-opacity="0"/>
    </linearGradient>
  </defs>
  <g data-type="innerShadowGroup">
    <rect id="Rectángulo_351-2" data-name="Rectángulo 351" width="58" height="58" rx="8" fill="url(#linear-gradient)"/>
    <g transform="matrix(1, 0, 0, 1, 0, 0)" filter="url(#Rectángulo_351)">
      <rect id="Rectángulo_351-3" data-name="Rectángulo 351" width="58" height="58" rx="8" fill="#fff"/>
    </g>
    <g id="Rectángulo_351-4" data-name="Rectángulo 351" fill="none" stroke="#212020" stroke-width="3">
      <rect width="58" height="58" rx="8" stroke="none"/>
      <rect x="1.5" y="1.5" width="55" height="55" rx="6.5" fill="none"/>
    </g>
  </g>
  <g id="nfthive-logo" transform="translate(10.238 8.23)">
    <path id="Trazado_116" data-name="Trazado 116" d="M45.917,13.838l-12.99-7.5a5.79,5.79,0,0,0-5.771,0l-12.99,7.5a5.789,5.789,0,0,0-2.886,5v15a5.794,5.794,0,0,0,2.886,5l12.99,7.5a5.794,5.794,0,0,0,5.771,0l12.99-7.5a5.789,5.789,0,0,0,2.886-5v-15A5.787,5.787,0,0,0,45.917,13.838Zm-.563,16.551h0V33.5A2.922,2.922,0,0,1,43.9,36.02L31.5,43.179a2.918,2.918,0,0,1-2.912,0l-12.4-7.159A2.922,2.922,0,0,1,14.729,33.5V20.474h0v-.22a2.188,2.188,0,1,1,4.377,0v7.122a2.188,2.188,0,0,0,4.377,0V25.6h0v-3.13a2.188,2.188,0,0,1,4.377,0V32.608h0v3.623a2.188,2.188,0,1,0,4.377,0v-8.1h0v-11.6a2.188,2.188,0,1,1,4.377,0v13.03a2.188,2.188,0,0,0,4.377,0V23.08h0V20.254a2.188,2.188,0,1,1,4.377,0V30.389Z" transform="translate(-11.28 -5.568)" fill="#ffc30b"/>
    <g id="Grupo_1139" data-name="Grupo 1139" transform="translate(0.26 0.26)">
      <g id="Grupo_1138" data-name="Grupo 1138" clip-path="url(#clip-path)">
        <path id="Trazado_117" data-name="Trazado 117" d="M-76.18-48.06c10.89-9.306,26.156.741,39.346,1.859s26.3-16.923,26.3-16.923L-26.047-88.35-36.73-84.3l-23.218,7.117Z" transform="translate(56.684 67.433)" fill="url(#linear-gradient-2)"/>
      </g>
    </g>
    <g id="Grupo_1142" data-name="Grupo 1142" transform="translate(3.449 8.779)">
      <g id="Grupo_1140" data-name="Grupo 1140">
        <path id="Trazado_119" data-name="Trazado 119" d="M57.585,61.523h0v3.108a2.922,2.922,0,0,1-1.456,2.523l-12.4,7.159a2.918,2.918,0,0,1-2.912,0l-12.4-7.159a2.922,2.922,0,0,1-1.456-2.523V51.608h0v-.22a2.188,2.188,0,1,1,4.377,0V58.51a2.188,2.188,0,0,0,4.377,0V56.737h0v-3.13a2.188,2.188,0,1,1,4.377,0V63.742h0v3.623a2.188,2.188,0,1,0,4.377,0v-8.1h0v-11.6a2.188,2.188,0,1,1,4.377,0V60.7a2.188,2.188,0,0,0,4.377,0V54.214h0V51.388a2.188,2.188,0,1,1,4.377,0V61.523Z" transform="translate(-26.96 -45.48)" fill="#472a00"/>
      </g>
      <g id="Grupo_1141" data-name="Grupo 1141">
        <path id="Trazado_120" data-name="Trazado 120" d="M57.585,61.523h0v3.108a2.922,2.922,0,0,1-1.456,2.523l-12.4,7.159a2.918,2.918,0,0,1-2.912,0l-12.4-7.159a2.922,2.922,0,0,1-1.456-2.523V51.608h0v-.22a2.188,2.188,0,1,1,4.377,0V58.51a2.188,2.188,0,0,0,4.377,0V56.737h0v-3.13a2.188,2.188,0,1,1,4.377,0V63.742h0v3.623a2.188,2.188,0,1,0,4.377,0v-8.1h0v-11.6a2.188,2.188,0,1,1,4.377,0V60.7a2.188,2.188,0,0,0,4.377,0V54.214h0V51.388a2.188,2.188,0,1,1,4.377,0V61.523Z" transform="translate(-26.96 -45.48)" fill="#231409"/>
      </g>
    </g>
  </g>
</svg>
