<svg xmlns="http://www.w3.org/2000/svg" width="200.199" height="146.36" viewBox="0 0 200.199 146.36">
  <g id="illust_chest" transform="translate(-66.825 -97.475)">
    <g id="Grupo_1792" data-name="Grupo 1792" transform="translate(66.9 97.547)">
      <g id="Grupo_1791" data-name="Grupo 1791">
        <path id="Trazado_1600" data-name="Trazado 1600" d="M177.519,97.6a1.05,1.05,0,0,0-.416-.046L103.5,103.333h-.046a.955.955,0,0,0-.648.278l-4.765,4.765L79.392,109.81a.875.875,0,0,0-.37.139.945.945,0,0,0-.324.278l-11.659,18a.926.926,0,0,0-.139.509V145.8a.776.776,0,0,0,.139.463.957.957,0,0,0,.37.37l2.36,1.11v5.783l-1.48-.694a.955.955,0,0,0-.6-.093,1.117,1.117,0,0,0-.509.37.847.847,0,0,0-.185.555l.74,42.194a1.305,1.305,0,0,0,.046.37l9.114,20.68a1.1,1.1,0,0,0,.463.463l50.938,24.659a.884.884,0,0,0,.509.093l35.115-4.858,12.538,6.292a.931.931,0,0,0,.555.093l20.218-2.868a.873.873,0,0,0,.555-.324l3.794-4.441a.908.908,0,0,0,.231-.6v-3.47l11.011-1.527h-.093l.185-.046,13.139,6.662a.915.915,0,0,0,.416.093h.046a.69.69,0,0,0,.093,0L244.7,235a.9.9,0,0,0,.509-.231l4.441-3.933a.963.963,0,0,0,.231-.324.874.874,0,0,0,.093-.37v-4.9l5.644-.786a.715.715,0,0,0,.324-.139.619.619,0,0,0,.278-.278l10.5-15.36a.767.767,0,0,0,.185-.509V163.524a.834.834,0,0,0-.555-.833.887.887,0,0,0-.509-.093l-1.434.185v-5.968l1.758-.231a.971.971,0,0,0,.786-.925V139.049a.939.939,0,0,0-.185-.555l-5.182-7.125a.51.51,0,0,0,.046-.231V121.006a.867.867,0,0,0-.231-.6l-1.619-1.989V117.3a.869.869,0,0,0-.231-.6l-4.95-5.968a.911.911,0,0,0-.37-.278l-26.371-9.9a1.445,1.445,0,0,0-.324-.046H211.8a.949.949,0,0,0-.925.925v1.758a.1.1,0,0,1-.093,0L197,100.788q-.093,0-.231,0l-8.559.694a.571.571,0,0,0-.139,0l-.925.093h-.093L177.519,97.6m82.259,30.257-.046-.093a1.178,1.178,0,0,0,.046-.324Z" transform="translate(-66.9 -97.547)" fill="#435d92"/>
      </g>
    </g>
    <g id="Grupo_1861" data-name="Grupo 1861" transform="translate(67.825 98.475)">
      <g id="Grupo_1794" data-name="Grupo 1794" transform="translate(2.868 48.717)">
        <g id="Grupo_1793" data-name="Grupo 1793">
          <path id="Trazado_1601" data-name="Trazado 1601" d="M-104-23.8V15.479H88.786V-23.8Z" transform="translate(104 23.8)" fill="#435d92"/>
        </g>
        <path id="Trazado_1602" data-name="Trazado 1602" d="M-104-23.8H88.786V15.479H-104Z" transform="translate(104 23.8)" fill="none" stroke="#3b4682" stroke-linecap="round" stroke-linejoin="round" stroke-width="2"/>
      </g>
      <g id="Grupo_1796" data-name="Grupo 1796" transform="translate(0.046 55.148)">
        <g id="Grupo_1795" data-name="Grupo 1795">
          <path id="Trazado_1603" data-name="Trazado 1603" d="M-61.618,49.633V5.126L-107.05-16.85l.787,42.24,44.646,24.243M91.056,37.7V37.65l-122.6,17.118L-46.212,70.729,80.554,53.01Z" transform="translate(107.05 16.85)" fill="#5871a7"/>
          <path id="Trazado_1604" data-name="Trazado 1604" d="M-27.878,11.9l-30.072-5V51.407l30.072,5.135Z" transform="translate(103.382 15.076)" fill="#6981b7"/>
          <path id="Trazado_1605" data-name="Trazado 1605" d="M-46.148,74.14l-15.406-21.1L-106.2,28.8l9.068,20.68Z" transform="translate(106.987 13.44)" fill="#324a79"/>
          <path id="Trazado_1606" data-name="Trazado 1606" d="M-57.95,55l15.406,21.1,14.666-15.961Z" transform="translate(103.382 11.483)" fill="#465c8b"/>
          <path id="Trazado_1607" data-name="Trazado 1607" d="M-25.45,10.918V55.564l122.6-17.118V-6.2Z" transform="translate(100.954 16.054)" fill="#8198cf"/>
        </g>
        <path id="Trazado_1608" data-name="Trazado 1608" d="M91.058,37.675V37.7l-10.5,15.337L-46.21,70.731-97.171,46.072l-9.091-20.68-.763-42.217L-61.616,5.128l30.072,5L91.058-6.971Z" transform="translate(107.048 16.848)" fill="none" stroke="#3b4682" stroke-linecap="round" stroke-linejoin="round" stroke-width="2"/>
      </g>
      <g id="Grupo_1798" data-name="Grupo 1798" transform="translate(0 3.239)">
        <g id="Grupo_1797" data-name="Grupo 1797">
          <path id="Trazado_1609" data-name="Trazado 1609" d="M-58-19.65v16.7l30.026,5L-27.882,2V-14.515l-29.7-5.089Z" transform="translate(103.432 68.968)" fill="#6981b7"/>
          <path id="Trazado_1610" data-name="Trazado 1610" d="M-43.284-36.9q-2.138,2.325-4.3,4.626a.343.343,0,0,1-.093.139L-56.932-22.1l-1.018,1.157.37.046,29.7,5.089Z" transform="translate(103.428 70.257)" fill="#a8bfef"/>
          <path id="Trazado_1611" data-name="Trazado 1611" d="M-95.441-63.2l-11.659,18,45.432,22.3L-60.6-24.06-51.351-34.1a.343.343,0,0,0,.093-.139q2.164-2.3,4.3-4.626Z" transform="translate(107.1 72.222)" fill="#9cb2ea"/>
          <path id="Trazado_1612" data-name="Trazado 1612" d="M-107.1-43.75v17.072l45.386,21.93h.046v-16.7Z" transform="translate(107.1 70.769)" fill="#5871a7"/>
          <path id="Trazado_1613" data-name="Trazado 1613" d="M95.954-34.187,81.612-53.85,12.03-44.69q-11.573,1.4-23.179,2.776Q-26.625-40.029-42.1-38.166l15.406,21.1Z" transform="translate(102.244 71.523)" fill="#b7d1f3"/>
          <path id="Trazado_1614" data-name="Trazado 1614" d="M97.2-15.991V-32.6L-25.45-15.482V1.035Z" transform="translate(101.001 69.936)" fill="#8198cf"/>
          <path id="Trazado_1615" data-name="Trazado 1615" d="M44.387-69.249l-21.513-3.7L-94.5-63.928l48.486,24.335q15.475-1.863,30.951-3.747,11.606-1.375,23.179-2.776L77.7-55.277l-.046-.046Z" transform="translate(106.159 72.95)" fill="#d1effd"/>
        </g>
        <path id="Trazado_1616" data-name="Trazado 1616" d="M-95.441-63.928,21.933-72.95l21.513,3.7L76.734-55.3l.023.023L91.1-35.614v16.609L-31.549-1.957l-.093.023-30.026-5h-.046L-107.1-28.86V-45.931Z" transform="translate(107.1 72.95)" fill="none" stroke="#3b4682" stroke-linecap="round" stroke-linejoin="round" stroke-width="2"/>
      </g>
      <g id="Grupo_1800" data-name="Grupo 1800" transform="translate(132.734 93.501)">
        <g id="Grupo_1799" data-name="Grupo 1799" transform="translate(0 0)">
          <path id="Trazado_1617" data-name="Trazado 1617" d="M62.166,31.077V24.6L36.35,29.458l.185,4.118Z" transform="translate(-36.35 -24.6)" fill="#5871a7"/>
        </g>
      </g>
      <g id="Grupo_1802" data-name="Grupo 1802" transform="translate(143.976 2.961)">
        <g id="Grupo_1801" data-name="Grupo 1801" transform="translate(0)">
          <path id="Trazado_1618" data-name="Trazado 1618" d="M77.35-62.55q0,.807,0,1.619,0,.2,0,.37v5.135l10.965-.046L93.5-53.251l4.21,6.755V-56.582l-4.95-5.968Z" transform="translate(-50.655 72.451)" fill="#f4b005"/>
          <path id="Trazado_1619" data-name="Trazado 1619" d="M64.23-73.25H48.5l26.695,9.9H90.6Z" transform="translate(-48.5 73.25)" fill="#ffcb17"/>
          <path id="Trazado_1620" data-name="Trazado 1620" d="M48.5-73.25V-67.1L75.195-56.225V-61.36q0-.171,0-.37,0-.813,0-1.619Z" transform="translate(-48.5 73.25)" fill="#e48609"/>
        </g>
        <path id="Trazado_1621" data-name="Trazado 1621" d="M48.5-73.25V-67.1L75.195-56.225M48.5-73.25H64.23l26.371,9.9,4.95,5.968v10.109L91.364-54.05l-5.2-2.2-10.965.023" transform="translate(-48.5 73.25)" fill="none" stroke="#915607" stroke-linecap="round" stroke-linejoin="round" stroke-width="2"/>
      </g>
      <g id="Grupo_1804" data-name="Grupo 1804" transform="translate(4.441 17.118)">
        <g id="Grupo_1803" data-name="Grupo 1803">
          <path id="Trazado_1622" data-name="Trazado 1622" d="M-66.833,7.747V-2.015L-74.05-1V19.128l7.217-1.018V7.747M-74.05-12.98V-1l7.217-1.018V-14l-1.388.185-5.829.833m7.217-11.427.74-.972-.74.833v.139M-46.939-45.55l-.925.185-1.434.278-3.933.787L-58.6-43.237h-.046L-74.05-26.489v9.947l5.829-.833,1.388-.185v-6.986l.74-.833.093-.139L-53.786-38.8l5.367-1.018,1.527-.324Z" transform="translate(100.19 57.024)" fill="#f4b005"/>
          <path id="Trazado_1623" data-name="Trazado 1623" d="M-76.157-15.158v1.342l5.829-.833v-3.562l-5.829.833v2.221m-26.093-24.8h0l26.093,12.63L-60.75-44.073l-4.673-2.267v-.046l-.925-.416-.046-.046-7.31-3.47q-1.761-.866-3.562-1.758-.866-.412-1.758-.879L-86.8-56.75Z" transform="translate(102.296 57.86)" fill="#e48609"/>
          <path id="Trazado_1624" data-name="Trazado 1624" d="M-71.347-57.9v-.046l-14.2,1.11,7.773,3.794q.892.467,1.758.879,1.8.892,3.562,1.758l7.31,3.47.046.046.925.416v.046l4.673,2.267h.046l5.367-1.064,3.933-.787,1.434-.278.925-.185Z" transform="translate(101.049 57.95)" fill="#ffcb17"/>
          <path id="Trazado_1625" data-name="Trazado 1625" d="M-101.19-28.1l.046,3.562L-76.16-12.464v-3.562L-101.19-28.1m18,24.2v.046l-3.285,5.922-6.986-3.377-3.655-9.3v-.046l-4.164-1.989,4.164,1.989v.046l3.655,9.3,6.986,3.377,3.285-5.922v-.046L-76.16-.481V-12.464l-24.983-12.075-.879-.416.509,22.068.231,10.363L-76.16,19.644V-.481l-7.032-3.424M-102.3-38.65l.231,10.086.879.463L-76.16-16.026v-9.947L-102.254-38.6h0Z" transform="translate(102.3 56.508)" fill="#cb7706"/>
        </g>
        <path id="Trazado_1626" data-name="Trazado 1626" d="M-76.158,18.2-101.28,6.036l-.231-10.363L-102-26.372l.879.416-.046-3.586-.9-.44-.208-10.086.023.023L-86.8-56.838l14.2-1.087v.023l23.572,11.427L-49-41.038l-1.527.3L-55.894-39.7-68.085-26.442m-.856,1.11v6.847l-1.388.185v3.562l1.388-.185V17.186L-76.158,18.2m0-20.125-7.032-3.4V-5.3L-86.476.623l-6.986-3.377-3.655-9.3v-.023l-4.164-2.013m-.972-25.955h.023M-68.2-26.28l-.74.81v.139m0,22.392-7.217,1.018" transform="translate(102.298 57.948)" fill="none" stroke="#915607" stroke-linecap="round" stroke-linejoin="round" stroke-width="2"/>
        <path id="Trazado_1627" data-name="Trazado 1627" d="M-76.069-11.612l-24.96-12.052m24.96,8.49L-101.075-27.25m30.836,14.8-5.829.833m5.829-4.4-5.829.833" transform="translate(102.208 55.657)" fill="none" stroke="#915607" stroke-linecap="round" stroke-linejoin="round" stroke-width="1.5"/>
      </g>
      <g id="Grupo_1806" data-name="Grupo 1806" transform="translate(96.277 72.034)">
        <g id="Grupo_1805" data-name="Grupo 1805" transform="translate(0 0)">
          <path id="Trazado_1628" data-name="Trazado 1628" d="M5,75.83q5.229-5.57,2.73-5.552l-10.78,1.48L5,75.83M45.945,64.912l7.4,3.747q6.585-2.668,4.765-5.459L45.945,64.912m13.371,6.755Z" transform="translate(3.05 -6.017)" fill="#b26b0b"/>
          <path id="Trazado_1629" data-name="Trazado 1629" d="M30.968,75.566l3.794-4.441L14.544,74.085l-3.794,4.3,20.218-2.822m47.514-5.783,4.441-3.933-18,2.082-4.534,3.933h-.046l.046.046Z" transform="translate(2.019 -6.215)" fill="#cb7707"/>
          <path id="Trazado_1630" data-name="Trazado 1630" d="M14.85,8.85V8.9H14.9Z" transform="translate(1.713 -1.957)" fill="#4291f0"/>
          <path id="Trazado_1631" data-name="Trazado 1631" d="M32.061,12.781,14.9,8.34H14.85V69.271L35.068,66.31V26.938L32.061,12.827v-.046M83.23,7.553V1.4L68.98,8.849l-.74.416h-.046l-2.961,14.2V63.117l18-2.082V7.553Z" transform="translate(1.713 -1.4)" fill="#f4b005"/>
          <path id="Trazado_1632" data-name="Trazado 1632" d="M14.163,8.9,8.38,9.825v56.4q2.5-.018-2.73,5.552l4.673,2.36h.046l3.794-4.3V8.9M64.545,24.029l-5.783.648V59.144Q60.581,61.935,54,64.6l1.527.786,4.441,2.221h.046l4.534-3.933Z" transform="translate(2.4 -1.96)" fill="#e48607"/>
        </g>
        <path id="Trazado_1633" data-name="Trazado 1633" d="M81.892,1.4V61.035l-4.441,3.933L59.361,67.1l-.023-.023h-.023L54.9,64.829l-1.527-.763-7.426-3.747,12.168-1.712V24.139M7.73,65.662V9.265M5,71.237,9.7,73.6h.023M33.731,26.938V66.31l-3.794,4.441L9.719,73.6M5,71.237l-8.05-4.071,10.78-1.5" transform="translate(3.05 -1.4)" fill="none" stroke="#915607" stroke-linecap="round" stroke-linejoin="round" stroke-width="2"/>
      </g>
      <g id="Grupo_1807" data-name="Grupo 1807" transform="translate(115.662 134.168)">
        <path id="Trazado_1634" data-name="Trazado 1634" d="M17.9,69.1l14.3-1.8" transform="translate(-17.9 -67.3)" fill="none" stroke="#fdcf02" stroke-linecap="round" stroke-linejoin="round" stroke-width="2"/>
      </g>
      <g id="Grupo_1808" data-name="Grupo 1808" transform="translate(165.628 128.339)">
        <path id="Trazado_1635" data-name="Trazado 1635" d="M71.9,62.388,84.577,61" transform="translate(-71.9 -61)" fill="none" stroke="#fdcf02" stroke-linecap="round" stroke-linejoin="round" stroke-width="2"/>
      </g>
      <g id="Grupo_1809" data-name="Grupo 1809" transform="translate(115.662 128.755)">
        <path id="Trazado_1636" data-name="Trazado 1636" d="M17.9,69.1l14.3-1.8" transform="translate(-17.9 -67.3)" fill="none" stroke="#fdcf02" stroke-linecap="round" stroke-linejoin="round" stroke-width="2"/>
      </g>
      <g id="Grupo_1810" data-name="Grupo 1810" transform="translate(165.628 122.926)">
        <path id="Trazado_1637" data-name="Trazado 1637" d="M71.9,62.388,84.577,61" transform="translate(-71.9 -61)" fill="none" stroke="#fdcf02" stroke-linecap="round" stroke-linejoin="round" stroke-width="2"/>
      </g>
      <g id="Grupo_1811" data-name="Grupo 1811" transform="translate(115.662 123.342)">
        <path id="Trazado_1638" data-name="Trazado 1638" d="M17.9,69.1l14.3-1.8" transform="translate(-17.9 -67.3)" fill="none" stroke="#fdcf02" stroke-linecap="round" stroke-linejoin="round" stroke-width="2"/>
      </g>
      <g id="Grupo_1812" data-name="Grupo 1812" transform="translate(165.628 117.513)">
        <path id="Trazado_1639" data-name="Trazado 1639" d="M71.9,62.388,84.577,61" transform="translate(-71.9 -61)" fill="none" stroke="#fdcf02" stroke-linecap="round" stroke-linejoin="round" stroke-width="2"/>
      </g>
      <g id="Grupo_1813" data-name="Grupo 1813" transform="translate(115.662 117.929)">
        <path id="Trazado_1640" data-name="Trazado 1640" d="M17.9,69.1l14.3-1.8" transform="translate(-17.9 -67.3)" fill="none" stroke="#fdcf02" stroke-linecap="round" stroke-linejoin="round" stroke-width="2"/>
      </g>
      <g id="Grupo_1814" data-name="Grupo 1814" transform="translate(165.628 112.1)">
        <path id="Trazado_1641" data-name="Trazado 1641" d="M71.9,62.388,84.577,61" transform="translate(-71.9 -61)" fill="none" stroke="#fdcf02" stroke-linecap="round" stroke-linejoin="round" stroke-width="2"/>
      </g>
      <g id="Grupo_1815" data-name="Grupo 1815" transform="translate(115.662 112.516)">
        <path id="Trazado_1642" data-name="Trazado 1642" d="M17.9,69.1l14.3-1.8" transform="translate(-17.9 -67.3)" fill="none" stroke="#fdcf02" stroke-linecap="round" stroke-linejoin="round" stroke-width="2"/>
      </g>
      <g id="Grupo_1816" data-name="Grupo 1816" transform="translate(165.628 106.687)">
        <path id="Trazado_1643" data-name="Trazado 1643" d="M71.9,62.388,84.577,61" transform="translate(-71.9 -61)" fill="none" stroke="#fdcf02" stroke-linecap="round" stroke-linejoin="round" stroke-width="2"/>
      </g>
      <g id="Grupo_1817" data-name="Grupo 1817" transform="translate(115.662 107.103)">
        <path id="Trazado_1644" data-name="Trazado 1644" d="M17.9,69.1l14.3-1.8" transform="translate(-17.9 -67.3)" fill="none" stroke="#fdcf02" stroke-linecap="round" stroke-linejoin="round" stroke-width="2"/>
      </g>
      <g id="Grupo_1818" data-name="Grupo 1818" transform="translate(165.628 101.274)">
        <path id="Trazado_1645" data-name="Trazado 1645" d="M71.9,62.388,84.577,61" transform="translate(-71.9 -61)" fill="none" stroke="#fdcf02" stroke-linecap="round" stroke-linejoin="round" stroke-width="2"/>
      </g>
      <g id="Grupo_1819" data-name="Grupo 1819" transform="translate(115.662 101.69)">
        <path id="Trazado_1646" data-name="Trazado 1646" d="M17.9,69.1l14.3-1.8" transform="translate(-17.9 -67.3)" fill="none" stroke="#fdcf02" stroke-linecap="round" stroke-linejoin="round" stroke-width="2"/>
      </g>
      <g id="Grupo_1820" data-name="Grupo 1820" transform="translate(165.628 95.861)">
        <path id="Trazado_1647" data-name="Trazado 1647" d="M71.9,62.388,84.577,61" transform="translate(-71.9 -61)" fill="none" stroke="#fdcf02" stroke-linecap="round" stroke-linejoin="round" stroke-width="2"/>
      </g>
      <g id="Grupo_1821" data-name="Grupo 1821" transform="translate(115.662 96.277)">
        <path id="Trazado_1648" data-name="Trazado 1648" d="M17.9,69.1l14.3-1.8" transform="translate(-17.9 -67.3)" fill="none" stroke="#fdcf02" stroke-linecap="round" stroke-linejoin="round" stroke-width="2"/>
      </g>
      <g id="Grupo_1822" data-name="Grupo 1822" transform="translate(165.628 90.448)">
        <path id="Trazado_1649" data-name="Trazado 1649" d="M71.9,62.388,84.577,61" transform="translate(-71.9 -61)" fill="none" stroke="#fdcf02" stroke-linecap="round" stroke-linejoin="round" stroke-width="2"/>
      </g>
      <g id="Grupo_1823" data-name="Grupo 1823" transform="translate(115.662 133.012)">
        <path id="Trazado_1650" data-name="Trazado 1650" d="M17.9,69.1l14.3-1.8" transform="translate(-17.9 -67.3)" fill="none" stroke="#de9205" stroke-linecap="round" stroke-linejoin="round" stroke-width="2"/>
      </g>
      <g id="Grupo_1824" data-name="Grupo 1824" transform="translate(165.628 127.182)">
        <path id="Trazado_1651" data-name="Trazado 1651" d="M71.9,62.388,84.577,61" transform="translate(-71.9 -61)" fill="none" stroke="#de9205" stroke-linecap="round" stroke-linejoin="round" stroke-width="2"/>
      </g>
      <g id="Grupo_1825" data-name="Grupo 1825" transform="translate(115.662 127.599)">
        <path id="Trazado_1652" data-name="Trazado 1652" d="M17.9,69.1l14.3-1.8" transform="translate(-17.9 -67.3)" fill="none" stroke="#de9205" stroke-linecap="round" stroke-linejoin="round" stroke-width="2"/>
      </g>
      <g id="Grupo_1826" data-name="Grupo 1826" transform="translate(165.628 121.769)">
        <path id="Trazado_1653" data-name="Trazado 1653" d="M71.9,62.388,84.577,61" transform="translate(-71.9 -61)" fill="none" stroke="#de9205" stroke-linecap="round" stroke-linejoin="round" stroke-width="2"/>
      </g>
      <g id="Grupo_1827" data-name="Grupo 1827" transform="translate(115.662 122.186)">
        <path id="Trazado_1654" data-name="Trazado 1654" d="M17.9,69.1l14.3-1.8" transform="translate(-17.9 -67.3)" fill="none" stroke="#de9205" stroke-linecap="round" stroke-linejoin="round" stroke-width="2"/>
      </g>
      <g id="Grupo_1828" data-name="Grupo 1828" transform="translate(165.628 116.356)">
        <path id="Trazado_1655" data-name="Trazado 1655" d="M71.9,62.388,84.577,61" transform="translate(-71.9 -61)" fill="none" stroke="#de9205" stroke-linecap="round" stroke-linejoin="round" stroke-width="2"/>
      </g>
      <g id="Grupo_1829" data-name="Grupo 1829" transform="translate(115.662 116.773)">
        <path id="Trazado_1656" data-name="Trazado 1656" d="M17.9,69.1l14.3-1.8" transform="translate(-17.9 -67.3)" fill="none" stroke="#de9205" stroke-linecap="round" stroke-linejoin="round" stroke-width="2"/>
      </g>
      <g id="Grupo_1830" data-name="Grupo 1830" transform="translate(165.628 110.943)">
        <path id="Trazado_1657" data-name="Trazado 1657" d="M71.9,62.388,84.577,61" transform="translate(-71.9 -61)" fill="none" stroke="#de9205" stroke-linecap="round" stroke-linejoin="round" stroke-width="2"/>
      </g>
      <g id="Grupo_1831" data-name="Grupo 1831" transform="translate(115.662 111.36)">
        <path id="Trazado_1658" data-name="Trazado 1658" d="M17.9,69.1l14.3-1.8" transform="translate(-17.9 -67.3)" fill="none" stroke="#de9205" stroke-linecap="round" stroke-linejoin="round" stroke-width="2"/>
      </g>
      <g id="Grupo_1832" data-name="Grupo 1832" transform="translate(165.628 105.53)">
        <path id="Trazado_1659" data-name="Trazado 1659" d="M71.9,62.388,84.577,61" transform="translate(-71.9 -61)" fill="none" stroke="#de9205" stroke-linecap="round" stroke-linejoin="round" stroke-width="2"/>
      </g>
      <g id="Grupo_1833" data-name="Grupo 1833" transform="translate(115.662 105.947)">
        <path id="Trazado_1660" data-name="Trazado 1660" d="M17.9,69.1l14.3-1.8" transform="translate(-17.9 -67.3)" fill="none" stroke="#de9205" stroke-linecap="round" stroke-linejoin="round" stroke-width="2"/>
      </g>
      <g id="Grupo_1834" data-name="Grupo 1834" transform="translate(165.628 100.117)">
        <path id="Trazado_1661" data-name="Trazado 1661" d="M71.9,62.388,84.577,61" transform="translate(-71.9 -61)" fill="none" stroke="#de9205" stroke-linecap="round" stroke-linejoin="round" stroke-width="2"/>
      </g>
      <g id="Grupo_1835" data-name="Grupo 1835" transform="translate(115.662 100.534)">
        <path id="Trazado_1662" data-name="Trazado 1662" d="M17.9,69.1l14.3-1.8" transform="translate(-17.9 -67.3)" fill="none" stroke="#de9205" stroke-linecap="round" stroke-linejoin="round" stroke-width="2"/>
      </g>
      <g id="Grupo_1836" data-name="Grupo 1836" transform="translate(165.628 94.704)">
        <path id="Trazado_1663" data-name="Trazado 1663" d="M71.9,62.388,84.577,61" transform="translate(-71.9 -61)" fill="none" stroke="#de9205" stroke-linecap="round" stroke-linejoin="round" stroke-width="2"/>
      </g>
      <g id="Grupo_1837" data-name="Grupo 1837" transform="translate(115.662 95.121)">
        <path id="Trazado_1664" data-name="Trazado 1664" d="M17.9,69.1l14.3-1.8" transform="translate(-17.9 -67.3)" fill="none" stroke="#de9205" stroke-linecap="round" stroke-linejoin="round" stroke-width="2"/>
      </g>
      <g id="Grupo_1838" data-name="Grupo 1838" transform="translate(165.628 89.291)">
        <path id="Trazado_1665" data-name="Trazado 1665" d="M71.9,62.388,84.577,61" transform="translate(-71.9 -61)" fill="none" stroke="#de9205" stroke-linecap="round" stroke-linejoin="round" stroke-width="2"/>
      </g>
      <g id="Grupo_1840" data-name="Grupo 1840" transform="translate(29.98)">
        <g id="Grupo_1839" data-name="Grupo 1839">
          <path id="Trazado_1666" data-name="Trazado 1666" d="M72.419-48.737,5.1-76.45-68.55-70.667l67.593,29.7Z" transform="translate(74.241 76.45)" fill="#6abbfa"/>
          <path id="Trazado_1667" data-name="Trazado 1667" d="M14.85-26.286V5.544l.046.046,17.164,4.441v.046l3.007,14.111,30.165-3.47,2.961-14.2h.046L85.45-1.349V-35.4l-70.6,9.114m63.661-1.2v20.4L65.788-.007A7.419,7.419,0,0,0,63.845,1.1a6.985,6.985,0,0,0-2.452,3.979l-1.943,9.3H59.4L40.527,16.555,38.908,9.107A6.507,6.507,0,0,0,37.52,5.776a6.767,6.767,0,0,0-2.73-2.128,8.134,8.134,0,0,0-1.018-.324L21.79.224v-20.4l56.721-7.31M16.654-1.118l.37.093h0Z" transform="translate(68.01 73.383)" fill="#3282e2"/>
          <path id="Trazado_1668" data-name="Trazado 1668" d="M17.17,1.743,16.8,1.65l.37.093Z" transform="translate(67.865 70.616)" fill="#f4b005"/>
          <path id="Trazado_1669" data-name="Trazado 1669" d="M79.071-6.447v-20.4L22.35-19.54V.863l11.983,3.1a8.134,8.134,0,0,1,1.018.324,6.767,6.767,0,0,1,2.73,2.128,6.507,6.507,0,0,1,1.388,3.331l1.619,7.449L59.963,15.02h.046l1.943-9.3A6.985,6.985,0,0,1,64.4,1.742,7.419,7.419,0,0,1,66.348.631Z" transform="translate(67.45 72.745)" fill="#355086"/>
          <path id="Trazado_1670" data-name="Trazado 1670" d="M4.5-38.727l9.577,11.659v-.046l70.6-9.114L77.876-46.5Z" transform="translate(68.784 74.213)" fill="#59a9f6"/>
          <path id="Trazado_1671" data-name="Trazado 1671" d="M-5.21-33.7,2.377-22.828V3.913L8.16,2.987v-31.83L-1.416-40.5-69.009-70.2l-.046-.046L-74.7-64.559Z" transform="translate(74.7 75.987)" fill="#2962a6"/>
        </g>
        <path id="Trazado_1672" data-name="Trazado 1672" d="M8.16,2.5v.023l-5.783.925V-23.292L-5.21-34.164-74.7-65.023l5.667-5.667.046.023L4.667-76.45,71.96-48.737l6.8,10.271V-4.416L61.55,3.449h-.023l-2.984,14.2-30.165,3.47L25.371,7.012V6.966L8.23,2.524ZM15.1-23.245l56.721-7.31v20.4L59.1-3.074A7.091,7.091,0,0,0,57.155-1.94a6.767,6.767,0,0,0-2.429,3.956L52.76,11.338h-.023l-18.9,2.174-1.6-7.472a6.646,6.646,0,0,0-1.388-3.308A6.863,6.863,0,0,0,28.1.581a8.659,8.659,0,0,0-.995-.324L15.1-2.843Z" transform="translate(74.7 76.45)" fill="none" stroke="#3b4682" stroke-linecap="round" stroke-linejoin="round" stroke-width="2"/>
      </g>
      <g id="Grupo_1842" data-name="Grupo 1842" transform="translate(126.581 49.714)">
        <g id="Grupo_1841" data-name="Grupo 1841" transform="translate(0 0)">
          <path id="Trazado_1673" data-name="Trazado 1673" d="M66.851-19.741v-2.267l-6.708.879v6.847l-1.018.185,1.018,2.082v3.84l6.708-.879v-2.267l-4.071.879v-2.082l4.071-.37v-2.267l-4.071.6v-4.858l4.071-.324M66.388-21.5v1.3l-3.655.324a.522.522,0,0,0-.324.139.533.533,0,0,0-.093.324v4.858a.483.483,0,0,0,.046.231.558.558,0,0,0,.231.185.392.392,0,0,0,.231.046l3.562-.555v1.342l-3.655.324a.638.638,0,0,0-.324.139.576.576,0,0,0-.093.324v2.082a.437.437,0,0,0,.046.231.493.493,0,0,0,.231.185.4.4,0,0,0,.278.046l3.516-.787v1.3L60.6-8.73v-3.285a.641.641,0,0,0-.046-.231l-.74-1.527.416-.046A.321.321,0,0,0,60.466-14a.352.352,0,0,0,.139-.278v-6.431l5.783-.787m9.022,1.342a2.248,2.248,0,0,0-.416-1.388,2.326,2.326,0,0,0-1.064-.972,2.862,2.862,0,0,0-1.712-.139l-4.21.555V-9.146l4.21-.555a4.453,4.453,0,0,0,1.712-.694,2.756,2.756,0,0,0,1.064-1.157,3.159,3.159,0,0,0,.416-1.573v-7.032m-.833-1.157a.152.152,0,0,1,.046.046,1.839,1.839,0,0,1,.324,1.11v7.032a2.556,2.556,0,0,1-.37,1.342h0a2.133,2.133,0,0,1-.879.972l-.046.046a3.9,3.9,0,0,1-1.527.6L68.47-9.7V-21.684l3.794-.509h.046a2.443,2.443,0,0,1,1.434.093,1.759,1.759,0,0,1,.833.787m-1.388,2.082q0-1.417-.694-1.527a4.369,4.369,0,0,0-1.434-.093.2.2,0,0,0-.046,0l-.463.093a.611.611,0,0,0-.278.139.7.7,0,0,0-.093.324v8.605a.448.448,0,0,0,.046.231.525.525,0,0,0,.231.185.494.494,0,0,0,.278.046l.463-.093a2.708,2.708,0,0,0,1.434-.37.442.442,0,0,0,.046-.046,2.177,2.177,0,0,0,.509-1.666v-5.829M70.644-20.3l.463-.093a3.27,3.27,0,0,1,1.249.093q.37.093.37,1.064V-13.4a1.887,1.887,0,0,1-.37,1.342,2.554,2.554,0,0,1-1.249.278l-.463.093V-20.3M50.7-17.613V-19.88l-6.061.833v9.993a2.683,2.683,0,0,0,.37,1.434,1.872,1.872,0,0,0,1.064.879,2.965,2.965,0,0,0,1.758.231L50.7-6.925V-9.1l-1.8.231a2.687,2.687,0,0,1-1.249,0q-.37-.185-.37-1.2v-7.356l3.424-.185m-.463-1.758v1.3l-3.007.185a.539.539,0,0,0-.324.139.515.515,0,0,0-.093.324v7.356q0,1.4.6,1.619h.046a2.735,2.735,0,0,0,1.48.046l1.3-.185v1.249l-2.5.37a2.572,2.572,0,0,1-1.48-.185.607.607,0,0,0-.046-.046,1.427,1.427,0,0,1-.833-.648,2.46,2.46,0,0,1-.278-1.2V-18.63l5.135-.74m5.968-1.2v5.829l-1.943,1.712v-7.31l-2.637.37V-7.018l2.637-.37v-2.683l1.157-.879,1.3,3.285,2.868-.416-1.9-4.9L58.8-14.05V-20.9l-2.591.324m.463.416,1.666-.231v6.153l-.972.925a.462.462,0,0,0-.139.231.465.465,0,0,0,0,.231l1.712,4.4L57-8.175,55.84-11.135a.465.465,0,0,0-.185-.231.543.543,0,0,0-.278-.046.4.4,0,0,0-.231.093l-1.157.879a.6.6,0,0,0-.139.139.624.624,0,0,0-.046.231V-7.8l-1.712.231V-19.556l1.712-.278v6.8a.466.466,0,0,0,.139.324.392.392,0,0,0,.278.139.372.372,0,0,0,.324-.139l1.943-1.712a.272.272,0,0,0,.139-.139.443.443,0,0,0,.046-.185v-5.413M33.494-6.694l-1.157.185V-17.474L29.7-17.1V-4.149l6.2-.787-.324-5-2.082.463v2.776m.046.463a.364.364,0,0,0,.278-.185.345.345,0,0,0,.139-.278V-9.1l1.2-.278.231,4.025L30.163-4.7V-16.687l1.712-.278V-6.509a.47.47,0,0,0,.046.231.547.547,0,0,0,.231.185.387.387,0,0,0,.231.046l1.157-.185m5.876-12.353a4.509,4.509,0,0,0-1.712.648,2.968,2.968,0,0,0-1.11,1.2,3.375,3.375,0,0,0-.37,1.527v7.495a2.683,2.683,0,0,0,.37,1.434,2.794,2.794,0,0,0,1.11.925,3.1,3.1,0,0,0,1.712.093l.879-.093a4.026,4.026,0,0,0,1.712-.6,3.417,3.417,0,0,0,1.11-1.2,3.193,3.193,0,0,0,.37-1.527v-7.541l-.093-.74a2.51,2.51,0,0,0-1.064-1.388,3.247,3.247,0,0,0-2.036-.324l-.879.093m-1.48,1.018a4.691,4.691,0,0,1,1.573-.555l.833-.093a3.032,3.032,0,0,1,1.758.231h-.046a2.109,2.109,0,0,1,.879,1.11l.093.694v7.495a2.637,2.637,0,0,1-.324,1.3,2.821,2.821,0,0,1-.972,1.064V-6.37a3.312,3.312,0,0,1-1.48.555l-.879.093h-.046a2.659,2.659,0,0,1-1.48-.093,2.289,2.289,0,0,1-.879-.74v.046a2.46,2.46,0,0,1-.278-1.2v-7.495a3.072,3.072,0,0,1,.324-1.342,2.823,2.823,0,0,1,.925-1.018m.972,1.018a.183.183,0,0,0-.046.046l-.046.046a1.364,1.364,0,0,0-.37.925v7.4a1.268,1.268,0,0,0,.463.925,1.245,1.245,0,0,0,.972.185,1.409,1.409,0,0,0,.972-.37,1.474,1.474,0,0,0,.416-.972v-7.4a1.136,1.136,0,0,0-.463-.925,1.213,1.213,0,0,0-1.018-.231,1.344,1.344,0,0,0-.879.37m0,1.064a.972.972,0,0,1,.278-.694.91.91,0,0,1,.648-.278.87.87,0,0,1,.694.139.743.743,0,0,1,.278.6v7.31a1.106,1.106,0,0,1-.278.694,1.137,1.137,0,0,1-.694.231.957.957,0,0,1-.648-.093.854.854,0,0,1-.278-.6Z" transform="translate(-29.7 22.723)" fill="#f4b005"/>
          <path id="Trazado_1674" data-name="Trazado 1674" d="M66.425-20.166v-1.3l-5.783.787v6.431a.352.352,0,0,1-.139.278.321.321,0,0,1-.231.185l-.416.046.74,1.527a.641.641,0,0,1,.046.231v3.285l5.783-.74v-1.3l-3.516.787a.4.4,0,0,1-.278-.046.493.493,0,0,1-.231-.185.437.437,0,0,1-.046-.231v-2.082a.576.576,0,0,1,.093-.324.638.638,0,0,1,.324-.139l3.655-.324v-1.342l-3.562.555a.392.392,0,0,1-.231-.046.558.558,0,0,1-.231-.185.483.483,0,0,1-.046-.231v-4.858a.533.533,0,0,1,.093-.324.522.522,0,0,1,.324-.139l3.655-.324m-.463-.74v.324l-3.239.278a.884.884,0,0,0-.6.278h0a.976.976,0,0,0-.231.648v4.858a.759.759,0,0,0,.139.463q.011.046,0,.046a1.067,1.067,0,0,0,.37.324q.046.012.046,0a.81.81,0,0,0,.463.093h.046l3.007-.463v.37l-3.239.278h-.046a.876.876,0,0,0-.555.324v-.046a.937.937,0,0,0-.231.648V-10.4a.9.9,0,0,0,.139.509h0a.886.886,0,0,0,.416.324A.728.728,0,0,0,63-9.525v.046l2.961-.648v.278L61.1-9.2v-2.776a.977.977,0,0,0-.093-.416l-.509-.972a.89.89,0,0,0,.37-.278v-.046a.812.812,0,0,0,.231-.555v-6.014l4.858-.648m8.7-.324a.152.152,0,0,0-.046-.046,1.759,1.759,0,0,0-.833-.787,2.443,2.443,0,0,0-1.434-.093H72.3l-3.794.509V-9.664l3.655-.463a3.9,3.9,0,0,0,1.527-.6l.046-.046a2.133,2.133,0,0,0,.879-.972h0a2.556,2.556,0,0,0,.37-1.342v-7.032a1.839,1.839,0,0,0-.324-1.11M74.244-21a.149.149,0,0,1,.046.046,1.412,1.412,0,0,1,.231.833v7.032a2.063,2.063,0,0,1-.278,1.064.867.867,0,0,1-.046.093,1.844,1.844,0,0,1-.694.787.635.635,0,0,1-.093.046l.046-.046a3.526,3.526,0,0,1-1.342.555l-3.146.416V-21.23l3.377-.463a.475.475,0,0,0,.093,0,2.016,2.016,0,0,1,1.157.046H73.55a1.366,1.366,0,0,1,.648.555.149.149,0,0,1,.046.046.053.053,0,0,1,0,.046m-.555,1.8q0-1.906-1.11-1.989a4.915,4.915,0,0,0-1.434-.093.946.946,0,0,0-.139,0,.25.25,0,0,0-.046,0l-.463.093a.878.878,0,0,0-.509.324h-.046a1.105,1.105,0,0,0-.185.555v8.652a.93.93,0,0,0,.139.509h0a1.125,1.125,0,0,0,.37.324q.047.011.046,0a.924.924,0,0,0,.509.093h.046l.463-.093a2.81,2.81,0,0,0,1.619-.463v-.046q.048,0,.046-.046.049,0,.046-.046a2.412,2.412,0,0,0,.648-1.943v-5.829m-1.157-1.527q.7.11.694,1.527v5.829a2.177,2.177,0,0,1-.509,1.666.442.442,0,0,1-.046.046,2.708,2.708,0,0,1-1.434.37l-.463.093a.494.494,0,0,1-.278-.046.525.525,0,0,1-.231-.185.448.448,0,0,1-.046-.231v-8.605a.7.7,0,0,1,.093-.324.611.611,0,0,1,.278-.139l.463-.093a.2.2,0,0,1,.046,0,4.369,4.369,0,0,1,1.434.093M50.279-18.038v-1.3l-5.135.74v9.577a2.46,2.46,0,0,0,.278,1.2,1.427,1.427,0,0,0,.833.648.607.607,0,0,1,.046.046,2.572,2.572,0,0,0,1.48.185l2.5-.37V-8.553l-1.3.185a2.735,2.735,0,0,1-1.48-.046h-.046q-.6-.216-.6-1.619V-17.39a.515.515,0,0,1,.093-.324.539.539,0,0,1,.324-.139l3.007-.185m-.463-.74v.324l-2.545.139a1,1,0,0,0-.648.278h0a1,1,0,0,0-.231.648v7.356Q46.386-8.206,47.318-8h.046a2.916,2.916,0,0,0,1.712.093L49.816-8v.278L47.734-7.4a2.1,2.1,0,0,1-1.2-.139.133.133,0,0,1-.046-.046.188.188,0,0,1-.093,0,.988.988,0,0,1-.555-.463,1.911,1.911,0,0,1-.231-.972v-9.16l4.21-.6m8.559-1.573-1.666.231v5.413a.443.443,0,0,1-.046.185.272.272,0,0,1-.139.139l-1.943,1.712a.372.372,0,0,1-.324.139.392.392,0,0,1-.278-.139.466.466,0,0,1-.139-.324v-6.8l-1.712.278V-7.535l1.712-.231v-2.267a.624.624,0,0,1,.046-.231.6.6,0,0,1,.139-.139l1.157-.879a.4.4,0,0,1,.231-.093.543.543,0,0,1,.278.046.465.465,0,0,1,.185.231l1.157,2.961,1.943-.278-1.712-4.4a.465.465,0,0,1,0-.231.462.462,0,0,1,.139-.231l.972-.925v-6.153m-1.2.648.74-.093v5.413l-.833.787v-.046a1.262,1.262,0,0,0-.278.463v.046a.883.883,0,0,0,.046.509h0l1.48,3.84-.972.139L56.34-11.237v-.046a1.153,1.153,0,0,0-.37-.416h-.046a.793.793,0,0,0-.509-.139.828.828,0,0,0-.509.185l-1.157.879a.953.953,0,0,0-.278.324.943.943,0,0,0-.093.416v1.851l-.787.139v-11.1l.787-.093v6.246a.918.918,0,0,0,.278.648H53.61a.927.927,0,0,0,.648.278.885.885,0,0,0,.648-.231l1.943-1.712h0a.813.813,0,0,0,.231-.324h0a.766.766,0,0,0,.093-.37v-5M33.855-6.379a.364.364,0,0,1-.278.185l-1.157.185a.387.387,0,0,1-.231-.046.547.547,0,0,1-.231-.185.47.47,0,0,1-.046-.231V-16.927L30.2-16.65V-4.667l5.228-.648L35.2-9.34l-1.2.278v2.406a.345.345,0,0,1-.139.278m-3.192-9.9.787-.093v9.9a.908.908,0,0,0,.139.509h0a1.03,1.03,0,0,0,.37.324q.046.012.046,0a.788.788,0,0,0,.463.093h.046l1.157-.185a.911.911,0,0,0,.555-.324.92.92,0,0,0,.231-.6V-8.692l.324-.046.185,3.007-4.3.555v-11.1m8.883-1.8a4.691,4.691,0,0,0-1.573.555,2.823,2.823,0,0,0-.925,1.018,3.072,3.072,0,0,0-.324,1.342v7.495A2.46,2.46,0,0,0,37-6.471v-.046a2.289,2.289,0,0,0,.879.74,2.659,2.659,0,0,0,1.48.093h.046l.879-.093a3.312,3.312,0,0,0,1.48-.555v.046a2.821,2.821,0,0,0,.972-1.064,2.637,2.637,0,0,0,.324-1.3v-7.495l-.093-.694a2.109,2.109,0,0,0-.879-1.11h.046a3.032,3.032,0,0,0-1.758-.231l-.833.093m-2.082,1.8a2.111,2.111,0,0,1,.787-.833,3.8,3.8,0,0,1,1.388-.509l.787-.093a2.5,2.5,0,0,1,1.342.139.515.515,0,0,1,.093.046,1.6,1.6,0,0,1,.648.74l.093.694v7.449a2.347,2.347,0,0,1-.278,1.11,2.088,2.088,0,0,1-.648.74q-.07.049-.139.093a3.3,3.3,0,0,1-1.3.463l-.879.093a.565.565,0,0,0-.093,0,2.329,2.329,0,0,1-1.2-.046,1.815,1.815,0,0,1-.648-.555.421.421,0,0,0-.093-.093,2.216,2.216,0,0,1-.139-.833v-7.495a2.474,2.474,0,0,1,.278-1.11m1.11-.555-.046.093a1.707,1.707,0,0,0-.509,1.2v7.495A1.657,1.657,0,0,0,38.666-6.8l-.046-.046a1.518,1.518,0,0,0,1.342.324,1.553,1.553,0,0,0,1.249-.555v.046a1.775,1.775,0,0,0,.555-1.249v-7.495a1.584,1.584,0,0,0-.648-1.3,1.784,1.784,0,0,0-1.342-.278,2.05,2.05,0,0,0-1.11.416.224.224,0,0,1-.093.093m.324.37a.183.183,0,0,1,.046-.046,1.344,1.344,0,0,1,.879-.37,1.213,1.213,0,0,1,1.018.231,1.136,1.136,0,0,1,.463.925v7.4a1.474,1.474,0,0,1-.416.972,1.409,1.409,0,0,1-.972.37,1.245,1.245,0,0,1-.972-.185,1.268,1.268,0,0,1-.463-.925v-7.4a1.364,1.364,0,0,1,.37-.925Z" transform="translate(-29.737 22.685)" fill="#ffd466"/>
          <path id="Trazado_1675" data-name="Trazado 1675" d="M66-20.545v-.324l-4.858.648v6.014a.812.812,0,0,1-.231.555v.046a.89.89,0,0,1-.37.278l.509.972a.977.977,0,0,1,.093.416v2.776L66-9.811v-.278l-2.961.648v-.046a.728.728,0,0,1-.555-.046.886.886,0,0,1-.416-.324h0a.9.9,0,0,1-.139-.509v-2.082a.937.937,0,0,1,.231-.648v.046a.876.876,0,0,1,.555-.324h.046L66-13.651v-.37l-3.007.463h-.046a.81.81,0,0,1-.463-.093q0,.012-.046,0a1.067,1.067,0,0,1-.37-.324q.011,0,0-.046a.759.759,0,0,1-.139-.463v-4.858a.976.976,0,0,1,.231-.648h0a.884.884,0,0,1,.6-.278L66-20.545m8.328-.37a.149.149,0,0,0-.046-.046.053.053,0,0,0,0-.046.149.149,0,0,0-.046-.046,1.366,1.366,0,0,0-.648-.555h.046a2.016,2.016,0,0,0-1.157-.046.475.475,0,0,1-.093,0l-3.377.463v11.057l3.146-.416a3.526,3.526,0,0,0,1.342-.555l-.046.046a.635.635,0,0,0,.093-.046,1.844,1.844,0,0,0,.694-.787.866.866,0,0,0,.046-.093,2.063,2.063,0,0,0,.278-1.064v-7.032a1.412,1.412,0,0,0-.231-.833m-1.712-.231q1.107.084,1.11,1.989v5.829a2.412,2.412,0,0,1-.648,1.943q0,.049-.046.046,0,.048-.046.046v.046a2.81,2.81,0,0,1-1.619.463l-.463.093h-.046a.924.924,0,0,1-.509-.093q0,.011-.046,0a1.125,1.125,0,0,1-.37-.324h0a.93.93,0,0,1-.139-.509v-8.652a1.105,1.105,0,0,1,.185-.555h.046a.878.878,0,0,1,.509-.324L71-21.239a.25.25,0,0,1,.046,0,.946.946,0,0,1,.139,0,4.915,4.915,0,0,1,1.434.093m-22.762,2.73v-.324l-4.21.6v9.16a1.911,1.911,0,0,0,.231.972.988.988,0,0,0,.555.463.188.188,0,0,0,.093,0,.133.133,0,0,0,.046.046,2.1,2.1,0,0,0,1.2.139l2.082-.324v-.278l-.74.093A2.916,2.916,0,0,1,47.4-7.961h-.046Q46.424-8.168,46.43-10v-7.356A1,1,0,0,1,46.661-18h0a1,1,0,0,1,.648-.278l2.545-.139m8.1-1.342-.74.093v5a.766.766,0,0,1-.093.37h0a.812.812,0,0,1-.231.324h0l-1.943,1.712a.885.885,0,0,1-.648.231.927.927,0,0,1-.648-.278h.046a.918.918,0,0,1-.278-.648V-19.2l-.787.093v11.1l.787-.139V-10a.943.943,0,0,1,.093-.416.953.953,0,0,1,.278-.324l1.157-.879a.828.828,0,0,1,.509-.185.793.793,0,0,1,.509.139h.046a1.153,1.153,0,0,1,.37.416v.046l1.018,2.591.972-.139-1.48-3.84h0a.883.883,0,0,1-.046-.509v-.046a1.262,1.262,0,0,1,.278-.463v.046l.833-.787v-5.413M31.487-16.335l-.787.093v11.1L35-5.694,34.818-8.7l-.324.046v2.036a.92.92,0,0,1-.231.6.911.911,0,0,1-.555.324l-1.157.185H32.5a.788.788,0,0,1-.463-.093q0,.012-.046,0a1.03,1.03,0,0,1-.37-.324h0a.908.908,0,0,1-.139-.509v-9.9m6.8-.74a2.111,2.111,0,0,0-.787.833,2.474,2.474,0,0,0-.278,1.11v7.495a2.216,2.216,0,0,0,.139.833.421.421,0,0,1,.093.093,1.815,1.815,0,0,0,.648.555,2.329,2.329,0,0,0,1.2.046.565.565,0,0,1,.093,0l.879-.093a3.3,3.3,0,0,0,1.3-.463q.069-.043.139-.093a2.088,2.088,0,0,0,.648-.74,2.347,2.347,0,0,0,.278-1.11v-7.449l-.093-.694a1.6,1.6,0,0,0-.648-.74.515.515,0,0,0-.093-.046,2.5,2.5,0,0,0-1.342-.139l-.787.093a3.8,3.8,0,0,0-1.388.509m.278.37.046-.093a.224.224,0,0,0,.093-.093,2.05,2.05,0,0,1,1.11-.416,1.784,1.784,0,0,1,1.342.278,1.584,1.584,0,0,1,.648,1.3v7.495a1.775,1.775,0,0,1-.555,1.249v-.046A1.553,1.553,0,0,1,40-6.48,1.518,1.518,0,0,1,38.658-6.8l.046.046a1.657,1.657,0,0,1-.648-1.249V-15.5A1.707,1.707,0,0,1,38.565-16.7Z" transform="translate(-29.775 22.648)" fill="#ffedbf"/>
        </g>
      </g>
      <g id="Grupo_1848" data-name="Grupo 1848" transform="translate(141.021 68.22)">
        <g id="Grupo_1843" data-name="Grupo 1843" transform="translate(0 0)">
          <path id="Trazado_1676" data-name="Trazado 1676" d="M49.7,2.309A2.988,2.988,0,0,1,50.515.274,3.061,3.061,0,0,1,52.451-.748,2.365,2.365,0,0,1,54.388-.2,2.337,2.337,0,0,1,55.2,1.64V2.87l-5.5.67Zm-1.911.233V3.785a4.932,4.932,0,0,0-.811.256,2.875,2.875,0,0,0-1.675,2.913v5.5q0,2.879,2.879,2.528l8.506-1.036a2.922,2.922,0,0,0,2.879-3.23v-5.5q0-2.2-1.7-2.5a3.814,3.814,0,0,0-.785-.061V1.41A3.938,3.938,0,0,0,55.723-1.7a3.951,3.951,0,0,0-3.272-.989A5.084,5.084,0,0,0,49.154-.9,5.031,5.031,0,0,0,47.793,2.542Z" transform="translate(-45.306 2.722)" fill="none" stroke="#3b4682" stroke-linecap="round" stroke-linejoin="round" stroke-width="5"/>
        </g>
        <g id="Grupo_1845" data-name="Grupo 1845" transform="translate(0 0)">
          <g id="Grupo_1844" data-name="Grupo 1844">
            <path id="Trazado_1677" data-name="Trazado 1677" d="M55.723-1.7a3.951,3.951,0,0,0-3.272-.989A5.084,5.084,0,0,0,49.154-.9a5.031,5.031,0,0,0-1.361,3.437v1.23a7.461,7.461,0,0,0-.811.256,2.9,2.9,0,0,0-1.675,2.926v5.5q0,2.879,2.879,2.528l8.506-1.036a2.922,2.922,0,0,0,2.879-3.23v-5.5q0-2.2-1.7-2.515a5.606,5.606,0,0,0-.785-.061V1.41A3.938,3.938,0,0,0,55.723-1.7m-.393.414.026,0a3.5,3.5,0,0,1,1.2,2.759V2.7a.475.475,0,0,0,.131.35.419.419,0,0,0,.34.116,5.4,5.4,0,0,1,.681.048h0Q59.05,3.5,59.047,5.28v5.5a2.391,2.391,0,0,1-2.356,2.643l-8.506,1.036q-2.356.287-2.356-2.069V6.89a2.4,2.4,0,0,1,1.309-2.384l-.026,0q.343-.122.733-.22a.543.543,0,0,0,.34-.2.593.593,0,0,0,.131-.382V2.478a4.468,4.468,0,0,1,1.2-3.052h0a4.541,4.541,0,0,1,2.931-1.587,3.452,3.452,0,0,1,2.879.879M55.2,3.393a.572.572,0,0,0,.366-.2.565.565,0,0,0,.157-.386V1.576a2.774,2.774,0,0,0-.968-2.185,2.816,2.816,0,0,0-2.3-.662,3.657,3.657,0,0,0-2.3,1.2v.026a3.549,3.549,0,0,0-.968,2.421V3.6a.44.44,0,0,0,.157.347.447.447,0,0,0,.366.112l5.5-.67m0-1.754V2.87l-5.5.67V2.309A2.988,2.988,0,0,1,50.515.274,3.061,3.061,0,0,1,52.451-.748,2.365,2.365,0,0,1,54.388-.2,2.337,2.337,0,0,1,55.2,1.64Z" transform="translate(-45.306 2.722)" fill="#f6ca1a"/>
            <path id="Trazado_1678" data-name="Trazado 1678" d="M55.4-1.242l-.026,0a3.452,3.452,0,0,0-2.879-.879A4.541,4.541,0,0,0,49.562-.531h0a4.468,4.468,0,0,0-1.2,3.052v1.23a.593.593,0,0,1-.131.382.543.543,0,0,1-.34.2q-.39.1-.733.22l.026,0a2.4,2.4,0,0,0-1.309,2.384v5.5q0,2.356,2.356,2.069l8.506-1.036a2.391,2.391,0,0,0,2.356-2.643v-5.5q0-1.775-1.335-2.062h0a5.4,5.4,0,0,0-.681-.048.419.419,0,0,1-.34-.116.475.475,0,0,1-.131-.35V1.516a3.5,3.5,0,0,0-1.2-2.759m.209,4.476a.572.572,0,0,1-.366.2l-5.5.67a.447.447,0,0,1-.366-.112.44.44,0,0,1-.157-.347V2.416A3.549,3.549,0,0,1,50.19-.006V-.032a3.657,3.657,0,0,1,2.3-1.2,2.816,2.816,0,0,1,2.3.662,2.774,2.774,0,0,1,.968,2.185v1.23A.565.565,0,0,1,55.608,3.234Z" transform="translate(-45.348 2.679)" fill="#ffe375"/>
          </g>
        </g>
        <g id="Grupo_1847" data-name="Grupo 1847" transform="translate(5.051 8.5)">
          <g id="Grupo_1846" data-name="Grupo 1846" transform="translate(0 0)">
            <path id="Trazado_1679" data-name="Trazado 1679" d="M54.953,8.321a1.82,1.82,0,0,0-2.094-1.839,2.313,2.313,0,0,0-1.492.784,2.344,2.344,0,0,0-.6,1.565,1.763,1.763,0,0,0,.6,1.392,1.553,1.553,0,0,0,.445.312l-.419,1.15q-.393,1.095.262,1.067l2.382-.29q.471-.057.419-.679a2.768,2.768,0,0,1-.131-.455l-.419-1.074a2.864,2.864,0,0,0,.419-.391A2.209,2.209,0,0,0,54.953,8.321Z" transform="translate(-50.765 -6.465)" fill="#3b4682"/>
          </g>
        </g>
      </g>
      <g id="Grupo_1853" data-name="Grupo 1853" transform="translate(7.31 2.591)">
        <g id="Grupo_1849" data-name="Grupo 1849" transform="translate(40.482 82.999)">
          <path id="Trazado_1680" data-name="Trazado 1680" d="M-50.13,29.421l-.046.139-.416,2.73v.37l-.093,1.11-.046.185V41.82l.046.185.093,1.11v.37l.416,2.73.046.139v.185l.093.231V47l.139.046.046-.046.046-.231.093-.231v-.185l.046-.139.416-2.73v-.37l.093-1.11.046-.185V33.955l-.046-.185-.093-1.11v-.37l-.416-2.73-.046-.139v-.185L-49.806,29l-.046-.185a.082.082,0,0,0-.093-.093l-.093.093V29l-.093.231v.185m-4.164-12.538-.139-.74a.082.082,0,0,0-.093-.093l-.093.093v.324l-.093.416-.74,14.481.694,13.926.046.324v.231l.093.416v.37l.139.046.046-.046.139-.786v-.231l.046-.324.648-11.1Z" transform="translate(55.45 -16.05)" fill="#435d92"/>
        </g>
        <g id="Grupo_1850" data-name="Grupo 1850" transform="translate(70.323 41.407)">
          <path id="Trazado_1681" data-name="Trazado 1681" d="M-22.413,10.148l-.093.093v.231l-.093.324v.185l-.555,5.459-.046.231v9.854l.046.231.555,5.459V32.4l.093.324V33l.139.046.046-.046.139-.6v-.185l.555-5.459.046-.231V16.671l-.046-.231-.555-5.459V10.8l-.139-.555a.082.082,0,0,0-.093-.093m4.673,6.8v.231l-.093.324v.185l-.046.231-.509,5.367-.046.278V33.65l.046.278.509,5.367.046.231v.185l.093.324v.278l.139.046.046-.046.139-.6v-.185l.046-.231.509-5.367.046-.278V23.564l-.046-.278-.509-5.367-.046-.231V17.5l-.139-.555a.082.082,0,0,0-.093-.093l-.093.093M-3.861-17.288l-.093.046v.139l-.093.185v.093l-.046.093-.416,1.712v.231l-.046.231L-4.6-14.1l-.046.139-.046.879-.046.278-.046,1.3.139,2.5.046.139.046.463.046.231v.231l.416,1.712.046.093v.093l.093.185v.093a.148.148,0,0,0,.139.093l.185-.37v-.093l.046-.093.416-1.712v-.231l.046-.231.046-.463.046-.139v-.37l.093-.787V-12.8l-.093-.787v-.37l-.046-.139-.046-.463-.046-.231v-.231l-.416-1.712-.046-.093v-.093l-.093-.185-.046-.139-.093-.046M92.462,17.735l-.046.093-.046.185-.093.231v.139l-.046.139-.416,2.545v.37l-.093,1.018-.046.185V30l.046.185.093,1.018v.37l.416,2.545.046.139v.139l.093.231.046.231.093.046.093-.046v-.231l.093-.231v-.139l.046-.139.416-2.545V31.2l.093-1.018L93.3,30V22.639l-.046-.185-.093-1.018v-.37l-.416-2.545-.046-.139v-.139l-.093-.231v-.185a.148.148,0,0,0-.139-.093M88.715-28.9l-.046.046-.046.185-.093.139v.139l-.046.093-.416,1.9v.231l-.046.231-.046.555-.046.093-.046.972L87.836-24v2.868l.093.879v.416l.046.093.046.555.046.231v.231l.416,1.9.046.093v.139l.093.139.046.139a.082.082,0,0,0,.093.093l.093-.093v-.139l.093-.139v-.139l.046-.093.416-1.9v-.231l.046-.231.046-.555.046-.093v-.416l.139-2.313-.139-2.73-.046-.093-.046-.555-.046-.231V-26.4l-.416-1.9-.046-.093v-.139l-.093-.139v-.185l-.139-.046M-.623-14.6V-14.7l-.093-.139v-.139l-.139-.046-.046.046-.046.139-.093.139v.093L-1.5-12.846v.185l-.093.648-.046.139-.046.833-.046.231v2.545l.046.231.046.833.046.139.093.648v.185l.416,1.619.046.139v.093l.093.139.046.093a.082.082,0,0,0,.093.093l.093-.093v-.093l.093-.139v-.093l.046-.139L-.16-6.23v-.185l.093-.648L-.021-7.2l.046-.833.046-.231.046-1.3-.046-.463v-.787l-.046-.231-.046-.833-.046-.139-.093-.648v-.185L-.623-14.6M88.9,3.069l-.046.231-.648,15.221.648,9.022.046.231v.231l.139.694.093.046.093-.046v-.324l.093-.37v-.231l.046-.231.648-9.022v-6.2L89.363,3.3l-.046-.231V2.838l-.093-.37V2.19a.148.148,0,0,0-.139-.093l-.046.093-.139.648Z" transform="translate(23.2 28.9)" fill="#6981b7"/>
        </g>
        <g id="Grupo_1851" data-name="Grupo 1851" transform="translate(40.075)">
          <path id="Trazado_1682" data-name="Trazado 1682" d="M-2.972-44.642q.093-.093-.046-.093l-4.025-1.712h.093l-.6-.324L-9.4-47.51h.046l-5.228-2.452L-40.215-60.418l-.278-.139-3.053-.972q-.093-.093-.093.046-.093.093.046.093l2.822,1.527,25.584,11.381,5.413,2.036h.046l2.36.787h.093l4.21,1.064q.093.093.093-.046m27.528-1.434a4.192,4.192,0,0,1,.74-.046l1.666-.093q.555,0,1.758-.093,1.157-.046,3.747-.231L62.909-50.1l.046-.093-.093-.046-6.246.093a4.192,4.192,0,0,1-.74.046l-1.666.093q-.555,0-1.758.093-1.157.046-3.747.231l-10.826.879L18.263-46.122l-.046.093.093.046,6.246-.093M5.355-73.141l-.093-.046L4.8-73.326H4.708L3.6-73.511H3.366l-.231-.046-1.9-.093L.914-73.6H-.011l-2.221.231h-.139L-4.314-73l-.139.046h-.139l-1.573.416-.416.185-1.2.416-.278.139-.139.093-.046.093.093.046.139.046h.185l.139.046h.139l1.11.093,7.819-.648h.139l.139-.046,1.8-.37.185-.093,1.2-.324.093-.046.185-.046.185-.093.046-.093M35.058-59.4l14.3,5.32,2.868.694q.093.093.093-.046.093-.093-.046-.093L32-62.731l-20.125-8.42-.509-.139q-.093-.093-.093.046-.093.093.046.093l1.249.787,11.242,5.829a14.188,14.188,0,0,0,1.8.879l5.6,2.591q1.3.555,3.84,1.666m-51.123,7.68,1.11.37h.046l2.36.787h.093L-8.2-49.5q.093.093.093-.046.093-.093-.046-.093l-4.071-1.712h.093l-2.452-1.064h.046L-43.223-64.582l-2.174-.74-.278-.139-3.053-.972q-.093-.093-.093.046-.093.093.046.093l3.053,1.619L-16.065-51.72m3.331-19.755.046-.093-.093-.046-5.32-.093-24.243,1.666L-54-67.867l-1.342.37-.463.185q-.139,0-.046.093,0,.139.093.046l1.064-.093.185-.046h.185l36.318-3.377Z" transform="translate(55.89 73.65)" fill="#9be5ff"/>
        </g>
        <g id="Grupo_1852" data-name="Grupo 1852" transform="translate(0 31.701)">
          <path id="Trazado_1683" data-name="Trazado 1683" d="M-80.925,14.638l2.637.879.231.046.185.093.324.093.278.046q.093.093.093-.046l-.046-.093-.463-.37-.185-.093-.185-.139-4.858-2.868-.185-.139-.231-.093-2.915-1.527-.278-.093-.231-.139L-94.62,6.773a2.745,2.745,0,0,1-.833-.324L-98.09,5.57l-.231-.046-.185-.093-.324-.093-.278-.046q-.093-.093-.093.046l.046.093.463.37.185.093.185.139L-93.463,8.9l.185.139.231.093,2.915,1.527.278.093.231.139,7.865,3.424a2.745,2.745,0,0,1,.833.324m3.7-3.331-.093-.046-.833-.648-.185-.093-.555-.416-.231-.093-.694-.416-.093-.046-.37-.231-1.3-.648-.139-.046-.139-.093-1.064-.463-.278-.093-.278-.139-2.36-.787L-86.061,7l-.463-.139-1.434-.278H-88.1l-.139-.046h-.324a.082.082,0,0,0-.093.093l.37.37.093.046.833.648.185.093.555.416.231.093.694.416.093.046.37.231,1.3.648.139.046.139.093,1.064.463.278.093.278.139,2.36.787.231.046.463.139,1.434.278h.139l.139.046h.324a.082.082,0,0,0,.093-.093l-.37-.37M-96.933-39.029l-.185-.093-.231-.046-.324-.139-.278-.046q-.093-.093-.093.046l.046.093a.5.5,0,0,0,.231.185l.416.324,2.221,1.434.37.185,2.683,1.619.231.093,5.783,3.007.278.093,8.837,3.609.185.093.231.046.324.139.278.046q.093.093.093-.046l-.046-.093-.463-.37L-81.8-32.228l-.231-.093-5.783-3.007-.278-.093-8.837-3.609m9.716,1.388.231.231.139.046,1.943,1.527.74.463.093.093,1.527.925.278.139.139.093.185.046,1.157.648.139.046,1.943.879.139.046.139.093.833.278.231.139,2.545.74h.185q.093.093.093-.046l-.046-.093-.093-.139-.231-.231-.139-.046-1.943-1.527-.74-.463-.093-.093-1.527-.925-.278-.139L-79.769-35l-.185-.046L-81.11-35.7l-.139-.046-1.943-.879-.139-.046-.139-.093-.833-.278-.231-.139-2.545-.74h-.185q-.093-.093-.093.046l.046.093Z" transform="translate(99.2 39.39)" fill="rgba(173,102,7,0.6)"/>
        </g>
      </g>
      <g id="Grupo_1857" data-name="Grupo 1857" transform="translate(5.459 9.022)">
        <g id="Grupo_1856" data-name="Grupo 1856">
          <g id="Grupo_1855" data-name="Grupo 1855" transform="translate(0 0)">
            <g id="Grupo_1854" data-name="Grupo 1854">
              <path id="Trazado_1684" data-name="Trazado 1684" d="M-48.921-40.626q1.62-3.162,0-2.545l-1.527.278-.416.093-4.95.972-13.047,14.2v5.459l15.036-16.748,4.9-1.712M36.346-68.2v2.915L65.863-53.534H76.827L80.251-52.1,77.2-56.31l-2.221-.925H64.012L36.346-68.2M50.78,38.117V17.575l-6.153.694.046,5.459V52.875l6.107-.833V38.117M.4-24.063-7.19-34.936l-18.46-8.189-51.03-22.67.648-.6-9.484.694,12.769,5.644h.231L-31.062-41.69-12.6-33.5-5.015-22.49V59.815L.4,59.075V-24.063M-68.861,15.031l-7.217,1.018L-101.2,3.881V9.34l25.122,12.168,7.217-1.018Z" transform="translate(101.2 68.2)" fill="#435d92"/>
            </g>
          </g>
        </g>
      </g>
      <g id="Grupo_1858" data-name="Grupo 1858" transform="translate(96.277 45.895)">
        <path id="Trazado_1685" data-name="Trazado 1685" d="M22.35-19.54l56.721-7.31v20.4L66.348.631A7.091,7.091,0,0,0,64.4,1.765,6.767,6.767,0,0,0,61.976,5.72L60.01,15.043h-.023l-18.9,2.174-1.6-7.472A6.646,6.646,0,0,0,38.1,6.438,6.863,6.863,0,0,0,35.35,4.286a8.659,8.659,0,0,0-.995-.324L22.35.863ZM47.842,58.208,35.628,59.92" transform="translate(1.153 26.85)" fill="none" stroke="#3b4682" stroke-linecap="round" stroke-linejoin="round" stroke-width="2"/>
        <path id="Trazado_1686" data-name="Trazado 1686" d="M81.892,2.5V61.118L77.451,65.05l-18.09,2.128-.023-.023h-.023L54.9,64.911l-1.527-.763L45.945,60.4M33.731,62.112v4.279l-3.794,4.441L9.719,73.679H9.7L5,71.319l-8.05-4.071,10.78-1.5V9.347M45.945,60.4l12.168-1.712V24.221m-24.382,2.8V62.112" transform="translate(3.05 24.658)" fill="none" stroke="#915607" stroke-linecap="round" stroke-linejoin="round" stroke-width="2"/>
      </g>
      <g id="Grupo_1859" data-name="Grupo 1859" transform="translate(0)">
        <path id="Trazado_1687" data-name="Trazado 1687" d="M-10.823,61.35l-35.393,4.927L-97.176,41.618l-9.091-20.68-.763-42.217,2.8,1.365v-7.819l-2.868-1.388V-46.193l11.659-18L-76.5-65.647l5.043-5.043.046.023L2.247-76.45l9.716,4,9.97-.763,14.944,2.568M-69.3-10.846l7.587,3.655h.046l30.026,5,.093-.023L-.043-6.59v-16.7L-7.63-34.164l-18.46-8.212L-77.12-65.023l.625-.625m88.459-6.8,46.82,19.269,10.757,4.441,6.8,10.271v21.236L88.554-18.92l2.545-.347V-35.876L76.757-55.538M76.34-17.231v7.865l12.214-1.712V-18.92m0,7.842,2.5-.347V33.244L80.55,48.581l-6.431.9M76.34-9.366v4.95L59.13,3.449h-.023l-2.984,14.2-30.165,3.47L22.951,7.012V6.966L5.81,2.524,5.74,2.5v.023l-5.783.925V1.275l-31.506,4.4-30.072-5-7.68-3.7m69.259,4.3V-6.59M-104.232-19.914l2.059.995m-.162-7.888-1.9-.925" transform="translate(107.1 76.45)" fill="none" stroke="#3b4682" stroke-linecap="round" stroke-linejoin="round" stroke-width="2"/>
      </g>
      <g id="Grupo_1860" data-name="Grupo 1860" transform="translate(4.465 2.961)">
        <path id="Trazado_1688" data-name="Trazado 1688" d="M37.237-73.25V-67.1L63.932-56.225,74.9-56.248l5.2,2.2,4.187,6.778V-57.381l-4.95-5.968-26.371-9.9ZM-68.941-4.084V16.041l-7.217,1.018L-101.28,4.891l-.231-10.363-.3-13.209-.162-7.888-.023-.948.879.416-.046-3.586-.9-.44-.208-10.086.023.023L-86.8-57.983l14.2-1.087v.023l23.572,11.427L-49-42.183l-1.527.3-.416.093-4.95.948L-68.941-26.615v6.986l-1.388.185v3.562l1.388-.185V-4.084l-7.217,1.018-7.032-3.4v.023L-86.476-.522-93.462-3.9l-3.655-9.3v-.023l-4.164-2.013" transform="translate(102.275 73.25)" fill="none" stroke="#915607" stroke-linecap="round" stroke-linejoin="round" stroke-width="2"/>
        <path id="Trazado_1689" data-name="Trazado 1689" d="M-70.239-12.445l-5.829.833-24.96-12.052m30.789,7.657-5.829.833L-101.075-27.25" transform="translate(102.185 69.814)" fill="none" stroke="#915607" stroke-linecap="round" stroke-linejoin="round" stroke-width="1.5"/>
      </g>
    </g>
  </g>
</svg>
