<svg xmlns="http://www.w3.org/2000/svg" width="31.5" height="31.5" viewBox="0 0 31.5 31.5">
  <path id="Icon_awesome-save" data-name="Icon awesome-save" d="M30.511,9.136l-5.9-5.9a3.375,3.375,0,0,0-2.386-.989H3.375A3.375,3.375,0,0,0,0,5.625v24.75A3.375,3.375,0,0,0,3.375,33.75h24.75A3.375,3.375,0,0,0,31.5,30.375V11.523a3.375,3.375,0,0,0-.989-2.386ZM15.75,29.25a4.5,4.5,0,1,1,4.5-4.5A4.5,4.5,0,0,1,15.75,29.25ZM22.5,7.838v7.068a.844.844,0,0,1-.844.844H5.344a.844.844,0,0,1-.844-.844V7.594a.844.844,0,0,1,.844-.844H21.412a.843.843,0,0,1,.6.247l.245.245a.843.843,0,0,1,.247.6Z" transform="translate(0 -2.25)" fill="#fff"/>
</svg>
