<svg xmlns="http://www.w3.org/2000/svg" xmlns:xlink="http://www.w3.org/1999/xlink" width="56" height="56" viewBox="0 0 56 56">
  <defs>
    <filter id="Rect치ngulo_299" x="0" y="0" width="56" height="56" filterUnits="userSpaceOnUse">
      <feOffset dy="3" input="SourceAlpha"/>
      <feGaussianBlur stdDeviation="3" result="blur"/>
      <feFlood flood-opacity="0.502"/>
      <feComposite operator="in" in2="blur"/>
      <feComposite in="SourceGraphic"/>
    </filter>
    <filter id="Icon_material-thumb-up" x="8.317" y="5.89" width="39.366" height="36.298" filterUnits="userSpaceOnUse">
      <feOffset input="SourceAlpha"/>
      <feGaussianBlur stdDeviation="2" result="blur-2"/>
      <feFlood flood-color="#005c2a" flood-opacity="0.702"/>
      <feComposite operator="in" in2="blur-2"/>
      <feComposite in="SourceGraphic"/>
    </filter>
  </defs>
  <g id="Grupo_967" data-name="Grupo 967" transform="translate(-478 -923)">
    <g transform="matrix(1, 0, 0, 1, 478, 923)" filter="url(#Rect치ngulo_299)">
      <g id="Rect치ngulo_299-2" data-name="Rect치ngulo 299" transform="translate(9 6)" fill="#00e34f" stroke="#fff" stroke-width="2">
        <rect width="38" height="38" rx="8" stroke="none"/>
        <rect x="1" y="1" width="36" height="36" rx="7" fill="none"/>
      </g>
    </g>
    <g transform="matrix(1, 0, 0, 1, 478, 923)" filter="url(#Icon_material-thumb-up)">
      <path id="Icon_material-thumb-up-2" data-name="Icon material-thumb-up" d="M28.866,25.8H23.891V11.219h4.976ZM1.5,12.434A2.467,2.467,0,0,1,3.988,10h7.849L10.655,4.452l-.037-.389a1.808,1.808,0,0,1,.547-1.288L12.484,1.5l8.185,8.006a2.348,2.348,0,0,1,.734,1.713V23.368a2.467,2.467,0,0,1-2.488,2.43H7.72a2.473,2.473,0,0,1-2.289-1.482L1.674,15.751a2.351,2.351,0,0,1-.174-.887v-2.32l.012-.012Z" transform="translate(12.82 10.39)" fill="#fff"/>
    </g>
  </g>
</svg>
