<svg xmlns="http://www.w3.org/2000/svg" width="133.894" height="133.895" viewBox="0 0 133.894 133.895">
  <path id="Sustracción_2" data-name="Sustracción 2" d="M1076.415,2112.9a66.63,66.63,0,0,1-37.431-11.434,67.143,67.143,0,0,1-24.255-29.455,66.858,66.858,0,0,1,6.172-63.49,67.143,67.143,0,0,1,29.455-24.255,66.858,66.858,0,0,1,63.489,6.172A67.144,67.144,0,0,1,1138.1,2019.9a66.857,66.857,0,0,1-6.173,63.49,67.149,67.149,0,0,1-29.455,24.256A66.526,66.526,0,0,1,1076.415,2112.9Zm15.415-67.1c3.935,0,6.488,1.617,7.806,4.942,1.171,2.957,1.171,6.9,1.171,9.78v27.065h17.246v-30.542a59.309,59.309,0,0,0-.775-10.438,23.287,23.287,0,0,0-3.015-8.392c-3.229-5.128-8.755-7.621-16.895-7.621a20.938,20.938,0,0,0-5.772.789,18.681,18.681,0,0,0-4.681,2.062,16.449,16.449,0,0,0-5.882,6.127h-.242V2032h-16.558v55.6h17.247v-27.53a33.592,33.592,0,0,1,.355-5.286,13.9,13.9,0,0,1,1.455-4.561,7.979,7.979,0,0,1,3.138-3.2A11.085,11.085,0,0,1,1091.831,2045.807ZM1036.152,2032v55.6h17.265V2032Zm8.623-27.677a10.031,10.031,0,0,0-7.07,17.116,9.884,9.884,0,0,0,14.139,0,10.031,10.031,0,0,0-7.069-17.116Z" transform="translate(-1009.468 -1979.01)" fill="#fff"/>
</svg>
