<svg xmlns="http://www.w3.org/2000/svg" width="133" height="133" viewBox="0 0 133 133">
  <g id="Grupo_895" data-name="Grupo 895" transform="translate(-1577 -88)">
    <path id="Sustracción_1" data-name="Sustracción 1" d="M1064.5-3979a66.086,66.086,0,0,1-25.885-5.226,66.473,66.473,0,0,1-11.3-6.131,66.944,66.944,0,0,1-9.842-8.12,66.99,66.99,0,0,1-8.12-9.842,66.506,66.506,0,0,1-6.131-11.3A66.085,66.085,0,0,1,998-4045.5a66.085,66.085,0,0,1,5.226-25.885,66.507,66.507,0,0,1,6.131-11.3,66.969,66.969,0,0,1,8.12-9.842,66.969,66.969,0,0,1,9.842-8.12,66.507,66.507,0,0,1,11.3-6.131A66.081,66.081,0,0,1,1064.5-4112a66.082,66.082,0,0,1,25.885,5.226,66.506,66.506,0,0,1,11.3,6.131,67.007,67.007,0,0,1,9.842,8.12,66.982,66.982,0,0,1,8.12,9.842,66.5,66.5,0,0,1,6.131,11.3A66.082,66.082,0,0,1,1131-4045.5a66.082,66.082,0,0,1-5.226,25.885,66.5,66.5,0,0,1-6.131,11.3,66.983,66.983,0,0,1-8.12,9.842,66.968,66.968,0,0,1-9.842,8.12,66.485,66.485,0,0,1-11.3,6.131A66.087,66.087,0,0,1,1064.5-3979Zm-12.255-79.131a31.458,31.458,0,0,0-20.312,7.635,30.578,30.578,0,0,0-7.355,9.277,31.234,31.234,0,0,0-3.366,11.334c-.073,1.768-.06,3.677.041,6.192a31.31,31.31,0,0,0,15.168,23.728,30.425,30.425,0,0,0,15.419,4.324c.513,0,1.03-.015,1.537-.043a30.22,30.22,0,0,0,13.869-3.74,30.814,30.814,0,0,0,10.69-9.6,30.619,30.619,0,0,0,3.943-7.8,32.418,32.418,0,0,0,1.668-8.576c.078-7.563.075-15.272.071-22.728v-.051c0-4.452,0-9.055.011-13.583a51.673,51.673,0,0,0,6.733,3.865,40.941,40.941,0,0,0,8.524,2.9,48.475,48.475,0,0,0,8.93,1.127v-16.748a36.765,36.765,0,0,1-9.465-2.254,23.983,23.983,0,0,1-8.155-5.185,22.674,22.674,0,0,1-5.257-7.963,29.166,29.166,0,0,1-2.015-9.366c-2.151.017-4.341.02-6.458.024h-.094c-3.172,0-6.453.01-9.7.06-.078,10.475-.075,21.109-.072,31.394,0,6.136,0,12.482-.012,18.765-.011,1.952-.007,3.934,0,5.85v.016c.01,5.372.019,10.927-.287,16.408a8.972,8.972,0,0,1-1.563,4.162l-.018.031-.123.212a14.2,14.2,0,0,1-4.914,4.81,13.29,13.29,0,0,1-6.6,1.88c-.346.031-.7.046-1.045.046a13.354,13.354,0,0,1-8.862-3.559,14.158,14.158,0,0,1-4.638-8.414c-.006-.348-.018-.7-.03-1.045a13.48,13.48,0,0,1,.611-5.645,14.388,14.388,0,0,1,5.652-7.272,13.552,13.552,0,0,1,7.748-2.293,15.586,15.586,0,0,1,4.8.755c0-2.63.046-5.3.091-7.89v-.025c.06-3.453.122-7.024.074-10.536A28.316,28.316,0,0,0,1052.244-4058.131Z" transform="translate(579 4200)" fill="#fff"/>
  </g>
</svg>
