<svg xmlns="http://www.w3.org/2000/svg" width="50.923" height="40.738" viewBox="0 0 50.923 40.738">
  <path id="Icon_awesome-user-plus" data-name="Icon awesome-user-plus" d="M49.65,16.55H44.558V11.458a1.277,1.277,0,0,0-1.273-1.273H40.738a1.277,1.277,0,0,0-1.273,1.273V16.55H34.373A1.277,1.277,0,0,0,33.1,17.823v2.546a1.277,1.277,0,0,0,1.273,1.273h5.092v5.092a1.277,1.277,0,0,0,1.273,1.273h2.546a1.277,1.277,0,0,0,1.273-1.273V21.642H49.65a1.277,1.277,0,0,0,1.273-1.273V17.823A1.277,1.277,0,0,0,49.65,16.55ZM17.823,20.369A10.185,10.185,0,1,0,7.638,10.185,10.184,10.184,0,0,0,17.823,20.369Zm7.129,2.546H23.623a13.851,13.851,0,0,1-11.6,0H10.694A10.7,10.7,0,0,0,0,33.609v3.31a3.82,3.82,0,0,0,3.819,3.819H31.827a3.82,3.82,0,0,0,3.819-3.819v-3.31A10.7,10.7,0,0,0,24.952,22.915Z" fill="#fff"/>
</svg>
