<?xml version="1.0" encoding="utf-8"?><svg id="iconWatch" image-rendering="optimizeSpeed" baseProfile="basic" version="1.1" preserveAspectRatio="xMidYMid slice" x="0px" y="0px" width="37" height="37" xmlns="http://www.w3.org/2000/svg" viewBox="0 0 37 37" xmlns:xlink="http://www.w3.org/1999/xlink"><g id="Escena-1" overflow="visible"><g id="FlashAICB_Layer-1_icon" transform="translate(18.5 18.5)"><g id="FlashAICB/Layer 1/icon_2.0"><g><g id="Layer2_0_FILL"><path fill="#0083CB" stroke="none" d="M12.7 -12.7Q7.45 -17.95 0 -17.95 -7.45 -17.95 -12.75 -12.7 -18 -7.4 -18 .05 -18 7.5 -12.75 12.75 -7.45 18 0 18 7.45 18 12.7 12.75 18 7.45 18 .05 17.95 -7.4 12.7 -12.7M0 -13.45Q5.6 -13.45 9.55 -9.5 13.5 -5.55 13.5 .05 13.5 5.65 9.55 9.6 5.6 13.55 0 13.55 -5.6 13.55 -9.55 9.6 -13.5 5.65 -13.5 .05 -13.55 -5.55 -9.6 -9.5 -5.65 -13.45 -.05 -13.45L0 -13.45M1.9 -1.5Q1.75 -1.7 1.6 -1.85 .9 -2.5 0 -2.5 -.95 -2.5 -1.6 -1.85 -2.25 -1.2 -2.25 -.25 -2.25 .65 -1.6 1.35 -1.5 1.45 -1.45 1.5L2.25 5.55 5.45 2.4 1.9 -1.5Z"/></g></g></g><g id="aguja-larga" transform="translate(0 -3.5)"><animateTransform attributeName="transform" additive="replace" type="translate" repeatCount="indefinite" dur="2.444s" keyTimes="0;.02299;.023;.04499;.045;.06799;.068;.09099;.091;.11399;.114;.27299;.273;.29599;.296;.31799;.318;.34099;.341;.36399;.364;.52299;.523;.54599;.546;.56799;.568;.59099;.591;.61399;.614;.77299;.773;.79599;.796;.81799;.818;.84099;.841;.86399;.864;1" values="0,-.25;0,-.25;.039,-.306;.039,-.306;.05,-.324;.05,-.324;.016,-.331;.016,-.331;.073,-.35;.073,-.35;0,-.3;0,-.3;.072,-.308;.072,-.308;.095,-.26;.095,-.26;.052,-.324;.052,-.324;.069,-.322;.069,-.322;0,-.25;0,-.25;.028,-.256;.028,-.256;.039,-.245;.039,-.245;-.034,-.329;-.034,-.329;.026,-.323;.026,-.323;0,-.3;0,-.3;.024,-.335;.024,-.335;.074,-.302;.074,-.302;.01,-.345;.01,-.345;.043,-.369;.043,-.369;0,-.25;0,-.25" calcMode="discrete"/><animateTransform attributeName="transform" additive="sum" type="rotate" repeatCount="indefinite" dur="2.444s" keyTimes="0;.02299;.023;.04499;.045;.06799;.068;.09099;.091;.11399;.114;.27299;.273;.29599;.296;.31799;.318;.34099;.341;.36399;.364;.52299;.523;.54599;.546;.56799;.568;.59099;.591;.61399;.614;.77299;.773;.79599;.796;.81799;.818;.84099;.841;.86399;.864;1" values="0,0,0;0,0,0;17.831,0,0;17.831,0,0;35.876,0,0;35.876,0,0;54.124,0,0;54.124,0,0;72.169,0,0;72.169,0,0;90,0,0;90,0,0;107.831,0,0;107.831,0,0;125.876,0,0;125.876,0,0;144.124,0,0;144.124,0,0;162.169,0,0;162.169,0,0;180,0,0;180,0,0;-162.169,0,0;-162.169,0,0;-144.124,0,0;-144.124,0,0;-125.876,0,0;-125.876,0,0;-107.831,0,0;-107.831,0,0;-90,0,0;-90,0,0;-72.169,0,0;-72.169,0,0;-54.124,0,0;-54.124,0,0;-35.876,0,0;-35.876,0,0;-17.831,0,0;-17.831,0,0;0,0,0;0,0,0" calcMode="discrete"/><animateTransform attributeName="transform" additive="sum" type="scale" repeatCount="indefinite" dur="2.444s" keyTimes="0;.02299;.023;.04499;.045;.09099;.091;.11399;.114;.27299;.273;.29599;.296;.34099;.341;.36399;.364;.52299;.523;.54599;.546;.59099;.591;.61399;.614;.77299;.773;.79599;.796;.84099;.841;.86399;.864;1" values="1,1;1,1;.998,.998;.998,.998;.997,.997;.997,.997;.998,.998;.998,.998;1,1;1,1;.998,.998;.998,.998;.997,.997;.997,.997;.998,.998;.998,.998;1,1;1,1;.998,.998;.998,.998;.997,.997;.997,.997;.998,.998;.998,.998;1,1;1,1;.998,.998;.998,.998;.997,.997;.997,.997;.998,.998;.998,.998;1,1;1,1" calcMode="discrete"/><animateTransform attributeName="transform" additive="sum" type="translate" repeatCount="indefinite" dur="2.444s" keyTimes="0;.02299;.023;.04499;.045;.09099;.091;.11399;.114;.27299;.273;.29599;.296;.31799;.318;.34099;.341;.36399;.364;.52299;.523;.54599;.546;.56799;.568;.59099;.591;.77299;.773;.79599;.796;.81799;.818;.84099;.841;.86399;.864;1" values="0,-3.25;0,-3.25;0,-3.15;0,-3.15;.05,-3.1;.05,-3.1;.1,-3.1;.1,-3.1;.05,-3.2;.05,-3.2;.05,-3.15;.05,-3.15;0,-3.1;0,-3.1;.05,-3.15;.05,-3.15;.1,-3.2;.1,-3.2;0,-3.25;0,-3.25;-.05,-3.2;-.05,-3.2;0,-3.15;0,-3.15;-.05,-3.15;-.05,-3.15;-.05,-3.2;-.05,-3.2;-.1,-3.15;-.1,-3.15;-.05,-3.15;-.05,-3.15;0,-3.1;0,-3.1;-.05,-3.1;-.05,-3.1;0,-3.25;0,-3.25" calcMode="discrete"/><g><g id="Layer3_0_FILL"><path fill="#0083CB" stroke="none" d="M2.25 -5.45L-2.25 -5.45 -2.25 3.25Q-2.25 3.325 -2.25 3.4 -2.195 4.208 -1.6 4.85 -.95 5.5 0 5.5 .9 5.5 1.6 4.85 2.195 4.208 2.25 3.4 2.25 3.325 2.25 3.25L2.25 -5.45Z"/></g></g></g><g id="FlashAICB/Layer 1/icon_0.0"><g><g id="Layer1_0_FILL"><path fill="#0083CB" stroke="none" d="M1.6 -1.85Q.9 -2.5 0 -2.5 -.95 -2.5 -1.6 -1.85 -2.25 -1.2 -2.25 -.25 -2.25 .65 -1.6 1.35 -.95 2 0 2 .9 2 1.6 1.35 2.25 .65 2.25 -.25 2.25 -1.2 1.6 -1.85Z"/></g></g></g></g></g></svg>