<svg xmlns="http://www.w3.org/2000/svg" width="46.27" height="37.016" viewBox="0 0 46.27 37.016">
  <path id="Icon_awesome-user-plus" data-name="Icon awesome-user-plus" d="M45.113,15.038H40.486V10.411a1.16,1.16,0,0,0-1.157-1.157H37.016a1.16,1.16,0,0,0-1.157,1.157v4.627H31.232a1.16,1.16,0,0,0-1.157,1.157v2.313a1.16,1.16,0,0,0,1.157,1.157h4.627v4.627a1.16,1.16,0,0,0,1.157,1.157h2.314a1.16,1.16,0,0,0,1.157-1.157V19.665h4.627a1.16,1.16,0,0,0,1.157-1.157V16.194A1.16,1.16,0,0,0,45.113,15.038Zm-28.919,3.47A9.254,9.254,0,1,0,6.94,9.254,9.253,9.253,0,0,0,16.194,18.508Zm6.478,2.314H21.465a12.585,12.585,0,0,1-10.541,0H9.717A9.719,9.719,0,0,0,0,30.538v3.008a3.471,3.471,0,0,0,3.47,3.47H28.919a3.471,3.471,0,0,0,3.47-3.47V30.538A9.719,9.719,0,0,0,22.672,20.821Z" fill="#fff"/>
</svg>
