<svg xmlns="http://www.w3.org/2000/svg" xmlns:xlink="http://www.w3.org/1999/xlink" width="37.617" height="35.004" viewBox="0 0 37.617 35.004">
  <defs>
    <linearGradient id="linear-gradient" x1="0.5" x2="0.5" y2="1" gradientUnits="objectBoundingBox">
      <stop offset="0" stop-color="#b9dbd8"/>
      <stop offset="1" stop-color="#94b7b4"/>
    </linearGradient>
    <filter id="Icon_awesome-star" x="0" y="0" width="37.617" height="35.004" filterUnits="userSpaceOnUse">
      <feOffset dy="3" input="SourceAlpha"/>
      <feGaussianBlur stdDeviation="3" result="blur"/>
      <feFlood flood-color="#152336" flood-opacity="0.4" result="color"/>
      <feComposite operator="out" in="SourceGraphic" in2="blur"/>
      <feComposite operator="in" in="color"/>
      <feComposite operator="in" in2="SourceGraphic"/>
    </filter>
  </defs>
  <g data-type="innerShadowGroup">
    <path id="Icon_awesome-star-2" data-name="Icon awesome-star" d="M18.232,1.217l-4.591,9.051L3.368,11.724a2.173,2.173,0,0,0-1.245,3.732L9.555,22.5,7.8,32.443a2.236,2.236,0,0,0,3.262,2.3l9.19-4.7,9.19,4.7a2.238,2.238,0,0,0,3.262-2.3L30.945,22.5l7.432-7.041a2.173,2.173,0,0,0-1.245-3.732L26.859,10.268,22.268,1.217a2.281,2.281,0,0,0-4.036,0Z" transform="translate(-1.441 0.001)" fill="url(#linear-gradient)"/>
    <g transform="matrix(1, 0, 0, 1, 0, 0)" filter="url(#Icon_awesome-star)">
      <path id="Icon_awesome-star-3" data-name="Icon awesome-star" d="M18.232,1.217l-4.591,9.051L3.368,11.724a2.173,2.173,0,0,0-1.245,3.732L9.555,22.5,7.8,32.443a2.236,2.236,0,0,0,3.262,2.3l9.19-4.7,9.19,4.7a2.238,2.238,0,0,0,3.262-2.3L30.945,22.5l7.432-7.041a2.173,2.173,0,0,0-1.245-3.732L26.859,10.268,22.268,1.217a2.281,2.281,0,0,0-4.036,0Z" transform="translate(-1.44 0)" fill="#fff"/>
    </g>
  </g>
</svg>
