<svg xmlns="http://www.w3.org/2000/svg" width="48" height="48" viewBox="0 0 48 48">
  <g id="Grupo_882" data-name="Grupo 882" transform="translate(-1577 -88)">
    <g id="Elipse_13" data-name="Elipse 13" transform="translate(1577 88)" fill="#fff" stroke="#0080d0" stroke-width="2">
      <circle cx="24" cy="24" r="24" stroke="none"/>
      <circle cx="24" cy="24" r="23" fill="none"/>
    </g>
    <path id="Icon_awesome-twitter" data-name="Icon awesome-twitter" d="M31.465,10.479c.022.312.022.623.022.935,0,9.5-7.232,20.45-20.45,20.45A20.311,20.311,0,0,1,0,28.637a14.869,14.869,0,0,0,1.736.089,14.4,14.4,0,0,0,8.923-3.071,7.2,7.2,0,0,1-6.72-4.985,9.064,9.064,0,0,0,1.357.111,7.6,7.6,0,0,0,1.891-.245,7.189,7.189,0,0,1-5.763-7.054v-.089a7.239,7.239,0,0,0,3.249.912A7.2,7.2,0,0,1,2.448,4.694a20.43,20.43,0,0,0,14.82,7.521,8.114,8.114,0,0,1-.178-1.647A7.194,7.194,0,0,1,29.529,5.651a14.151,14.151,0,0,0,4.562-1.736,7.168,7.168,0,0,1-3.16,3.961A14.409,14.409,0,0,0,35.07,6.763a15.45,15.45,0,0,1-3.6,3.716Z" transform="translate(1583.465 94.378)" fill="#0080d0"/>
  </g>
</svg>
