<svg xmlns="http://www.w3.org/2000/svg" width="48" height="48" viewBox="0 0 48 48">
  <g id="Grupo_1045" data-name="Grupo 1045" transform="translate(-1577 -88)">
    <g id="Elipse_13" data-name="Elipse 13" transform="translate(1577 88)" fill="#5865f2" stroke="#5865f2" stroke-width="2">
      <circle cx="24" cy="24" r="24" stroke="none"/>
      <circle cx="24" cy="24" r="23" fill="none"/>
    </g>
    <g id="discord-icon" transform="translate(1583 98)">
      <path id="Trazado_105" data-name="Trazado 105" d="M29.945,2.272A28.972,28.972,0,0,0,22.652,0a21.122,21.122,0,0,0-.934,1.923,27.007,27.007,0,0,0-8.083,0A20.48,20.48,0,0,0,12.69,0a28.875,28.875,0,0,0-7.3,2.278A30.124,30.124,0,0,0,.15,22.583a29.253,29.253,0,0,0,8.945,4.544A22.019,22.019,0,0,0,11.01,24a18.906,18.906,0,0,1-3.017-1.456c.253-.186.5-.38.74-.58a20.774,20.774,0,0,0,17.883,0c.242.2.489.394.74.58A18.859,18.859,0,0,1,24.334,24,21.922,21.922,0,0,0,26.25,27.13a29.2,29.2,0,0,0,8.95-4.547A30.1,30.1,0,0,0,29.945,2.272ZM11.8,18.495a3.413,3.413,0,0,1-3.178-3.584A3.4,3.4,0,0,1,11.8,11.324a3.373,3.373,0,0,1,3.178,3.587A3.39,3.39,0,0,1,11.8,18.495Zm11.744,0a3.413,3.413,0,0,1-3.178-3.584,3.4,3.4,0,0,1,3.178-3.587,3.373,3.373,0,0,1,3.178,3.587A3.392,3.392,0,0,1,23.547,18.495Z" transform="translate(0)" fill="#fff"/>
    </g>
  </g>
</svg>
